<svg version="1.2" xmlns="http://www.w3.org/2000/svg" viewBox="0 0 2500 2500" width="500" height="500">
	<title>bwink_edu_05_single_05</title>
	<style>
		.s0 { fill: none } 
		.s1 { fill: #ab0d26 } 
		.s2 { fill: #f3e2ea } 
		.s3 { fill: #ffffff } 
	</style>
	<g id="Background">
		<path id="&lt;Path&gt;" class="s0" d="m2530 0v2500h-2500v-2500z"/>
	</g>
	<g id="Illustration">
		<g id="Coding workshop 1 ">
			<g id="&lt;Group&gt;">
				<g id="&lt;Group&gt;">
					<g id="&lt;Group&gt;">
						<g id="&lt;Group&gt;">
							<path id="&lt;Path&gt;" class="s1" d="m1543.4 1316.7l-350.6 2.2c-2.3 0-3 2.2-3 4.2v298.2c0 28.6-199.2 102.8-201.1 99l-0.3 31.6c0 5.9 5.2 11.1 11.8 11.1h4.3q0.1 0 0.1 0h293.9c13.7 0 27.2-3.1 39.5-8.3l161.6-68c29.1-12.2 47.5-38.6 47.5-67.3v-298.5c0-2-1.5-4.2-3.7-4.2z"/>
							<g id="&lt;Group&gt;">
								<path id="&lt;Path&gt;" class="s2" d="m1154.3 1301.6v298.3c0 29.4-18.9 56.2-48.7 68.9l-109 46.5c-7.1 3.1-4.7 12.6 3.2 12.6h299.5c13.5 0 26.8-2.7 39-7.8l120.8-50.8c29.9-12.7 49-39.6 49-69.1v-298.6c0-1.2-1.1-2.2-2.4-2.2h-348.9c-1.4 0-2.5 1-2.5 2.2z"/>
								<path id="&lt;Compound Path&gt;" class="s1" d="m1299.3 1730.1h-299.5c-5.5 0-8.7-3.6-9.5-7.2-0.8-4 1.4-7.9 5.4-9.6l109-46.6c28.8-12.2 47.3-38.5 47.3-66.8v-298.3c0-2.5 2.2-4.5 4.8-4.5h348.9c2.6 0 4.7 2 4.7 4.5v298.6c0 30.3-19.8 58.2-50.5 71.1l-120.8 50.9c-12.3 5.2-26.1 7.9-39.8 7.9zm-142.8-428.4v298.2c0 30.1-19.6 58-50 70.9l-109 46.6c-2.2 0.9-3.2 2.6-2.8 4.6 0.3 1.7 1.9 3.7 5.1 3.7h299.5c13.1 0 26.3-2.7 38.1-7.6l120.8-50.9c29-12.2 47.7-38.5 47.7-67v-298.6c0 0-0.1 0-0.2 0h-348.9q-0.2 0-0.3 0.1z"/>
							</g>
						</g>
						<g id="&lt;Group&gt;">
							<path id="&lt;Path&gt;" class="s1" d="m499 1472.5l1511 3.4c13.2 0 26.4-9.9 28.1-23.1l122.7-945.4c3-22.9-14.8-45.7-37.6-45.2l-1493.4 7.9z"/>
							<g id="&lt;Group&gt;">
								<path id="&lt;Path&gt;" class="s2" d="m2063.9 467.6c26 0 49.5 26.4 46.1 52.2l-119.2 930.7c-1.7 13.2-15.7 24.3-28.9 24.3l-1484.3-2.4c-15.8 0-26.4-13.2-24.4-28.9l123.4-948c1.7-13.2 10.4-27.9 23.6-27.9z"/>
								<path id="&lt;Compound Path&gt;" class="s1" d="m1961.9 1477l-1484.3-2.4c-8 0-15.2-3.1-20.2-8.8-5.2-5.9-7.5-14.1-6.4-22.6l123.4-948c1.9-14.5 11.6-29.8 25.8-29.8h1463.7c13.1 0 26.2 6.3 35.9 17.3 9.6 10.9 14.1 24.5 12.5 37.4l-119.2 930.7c-1.8 14-16.4 26.2-31.2 26.2zm-1361.7-1007.2c-11.7 0-19.7 13.4-21.3 26l-123.5 948c-0.9 7.3 1 14 5.4 19.1 4.1 4.7 10.1 7.3 16.8 7.3l1484.3 2.4c12.5 0 25.2-10.7 26.7-22.3l119.2-930.8c1.5-11.6-2.6-23.9-11.4-33.9-8.8-10-20.7-15.8-32.5-15.8z"/>
							</g>
							<path id="&lt;Compound Path&gt;" class="s1" d="m1928 1434.7l-1402.4-2.2c-7.4 0-14.1-2.9-18.7-8.2-4.8-5.5-7-13.1-6-21l113.6-872.1c1.7-13.4 10.7-27.6 23.9-27.6h1383.4c12.1 0 24.2 5.8 33.2 16 8.8 10.1 13 22.7 11.5 34.6l-109.7 856.2c-1.6 12.9-15.1 24.3-28.8 24.3zm-1289.6-926.6c-10.7 0-18 12.2-19.5 23.7l-113.6 872.1c-0.8 6.7 0.9 12.9 5 17.4 3.7 4.3 9.2 6.7 15.3 6.7l1402.4 2.2c11.4 0 23-9.7 24.4-20.4l109.7-856.2c1.3-10.6-2.5-21.9-10.5-31.1-8.1-9.1-18.9-14.4-29.8-14.4z"/>
						</g>
					</g>
				</g>
				<g id="&lt;Group&gt;">
					<g id="&lt;Group&gt;">
						<path id="&lt;Compound Path&gt;" class="s1" d="m1873.4 626.3h-570.1c-0.6 0-1.2-0.3-1.6-0.8-0.5-0.5-0.7-1.1-0.6-1.8l3.9-28.6c0.1-1.1 1.1-1.9 2.2-1.9h570c0.7 0 1.3 0.3 1.7 0.8 0.4 0.5 0.6 1.1 0.5 1.7l-3.8 28.6c-0.2 1.1-1.1 2-2.2 2zm-567.5-4.5h565.5l3.3-24.1h-565.6z"/>
						<path id="&lt;Path&gt;" class="s1" d="m1996.4 671.1h-580.8l3.8-28.5h580.8z"/>
						<path id="&lt;Compound Path&gt;" class="s1" d="m1920 720.5h-300.2c-0.6 0-1.2-0.3-1.7-0.8-0.4-0.5-0.6-1.1-0.5-1.7l3.9-28.6c0.1-1.1 1-1.9 2.2-1.9h300.2c0.6 0 1.2 0.2 1.6 0.7 0.5 0.5 0.7 1.1 0.6 1.8l-3.9 28.6c-0.1 1.1-1.1 1.9-2.2 1.9zm-297.6-4.5h295.7l3.2-24.1h-295.7z"/>
						<path id="&lt;Compound Path&gt;" class="s1" d="m1822.7 1003.2h-570c-0.7 0-1.3-0.3-1.7-0.8-0.4-0.4-0.6-1.1-0.6-1.7l3.9-28.6c0.1-1.1 1.1-1.9 2.2-1.9h570c0.7 0 1.3 0.2 1.7 0.7 0.4 0.5 0.6 1.1 0.6 1.8l-3.9 28.6c-0.1 1.1-1.1 1.9-2.2 1.9zm-567.5-4.5h565.5l3.3-24.1h-565.6z"/>
						<path id="&lt;Path&gt;" class="s1" d="m1514.3 1050.3h-149.4c-0.6 0-1.2-0.3-1.7-0.7-0.4-0.5-0.6-1.2-0.5-1.8l3.8-28.6c0.2-1.1 1.1-1.9 2.3-1.9h135c1.3 0 2.3 1 2.3 2.2 0 1.2-1 2.2-2.3 2.2h-133.1l-3.2 24.2h146.8c1.2 0 2.2 1 2.2 2.2 0 1.2-1 2.2-2.2 2.2z"/>
						<path id="&lt;Path&gt;" class="s1" d="m1945.7 1050.3h-358.7c-1.2 0-2.2-1-2.2-2.2 0-1.2 1-2.2 2.2-2.2h356.8l3.2-24.2h-379.4c-1.2 0-2.2-1-2.2-2.2 0-1.2 1-2.2 2.2-2.2h382c0.6 0 1.2 0.3 1.6 0.7 0.5 0.5 0.7 1.2 0.6 1.8l-3.9 28.6c-0.1 1.1-1.1 1.9-2.2 1.9z"/>
						<path id="&lt;Path&gt;" class="s1" d="m1939.4 1097.4h-310.3c-1.2 0-2.2-1-2.2-2.2 0-1.2 1-2.2 2.2-2.2h308.3l3.3-24.1h-328.7c-1.2 0-2.2-1-2.2-2.3 0-1.2 1-2.2 2.2-2.2h331.2c0.7 0 1.3 0.3 1.7 0.8 0.4 0.4 0.6 1.1 0.5 1.7l-3.8 28.6c-0.2 1.1-1.1 1.9-2.2 1.9z"/>
						<path id="&lt;Path&gt;" class="s1" d="m1561.9 1142.6h-211.5c-0.7 0-1.3-0.3-1.7-0.8-0.4-0.5-0.6-1.1-0.6-1.7l3.9-28.6c0.1-1.1 1.1-1.9 2.2-1.9h174.1c1.3 0 2.3 0.9 2.3 2.2 0 1.2-1 2.2-2.3 2.2h-172.1l-3.3 24.1h209c1.3 0 2.3 1 2.3 2.3 0 1.2-1 2.2-2.3 2.2z"/>
						<path id="&lt;Path&gt;" class="s1" d="m1854.4 765.4h-570.1l3.9-28.6h570z"/>
						<path id="&lt;Path&gt;" class="s1" d="m1894.3 812.5h-497.7l3.8-28.6h494.6z"/>
						<path id="&lt;Compound Path&gt;" class="s1" d="m1824.7 909h-230.2c-0.7 0-1.3-0.3-1.7-0.8-0.4-0.5-0.6-1.1-0.5-1.8l3.8-28.5c0.2-1.1 1.1-2 2.2-2h230.2c0.6 0 1.2 0.3 1.7 0.8 0.4 0.5 0.6 1.1 0.5 1.8l-3.8 28.5c-0.2 1.1-1.1 2-2.2 2zm-227.7-4.5h225.7l3.2-24.1h-225.6z"/>
						<path id="&lt;Path&gt;" class="s1" d="m1887.1 953.8h-230.1l3.8-28.6h230.2z"/>
						<path id="&lt;Path&gt;" class="s1" d="m1876.1 859.6h-275.3l3.9-28.6h272.5z"/>
						<path id="&lt;Path&gt;" class="s1" d="m1797.4 1189.4h-570.1l3.9-28.5h570z"/>
						<path id="&lt;Path&gt;" class="s1" d="m1640.5 1238.8h-300.9c-0.7 0-1.3-0.3-1.7-0.8-0.4-0.5-0.6-1.1-0.5-1.7l3.8-28.6c0.2-1.1 1.1-2 2.2-2h286.9c1.2 0 2.2 1 2.2 2.3 0 1.2-1 2.2-2.2 2.2h-284.9l-3.3 24.1h298.4c1.2 0 2.2 1 2.2 2.3 0 1.2-1 2.2-2.2 2.2z"/>
						<path id="&lt;Path&gt;" class="s1" d="m1798.8 1285.9h-255c-0.6 0-1.2-0.3-1.7-0.8-0.4-0.4-0.6-1.1-0.5-1.7l3.8-28.6c0.2-1.1 1.1-1.9 2.2-1.9h242.1c1.2 0 2.2 1 2.2 2.2 0 1.2-1 2.2-2.2 2.2h-240.1l-3.2 24.1h252.4c1.2 0 2.2 1 2.2 2.3 0 1.2-1 2.2-2.2 2.2z"/>
						<path id="&lt;Path&gt;" class="s1" d="m1778.4 1330.8h-570.1l3.9-28.6h570z"/>
						<path id="&lt;Path&gt;" class="s1" d="m1796.5 1380.1h-475.9c-0.7 0-1.3-0.2-1.7-0.7-0.4-0.5-0.6-1.2-0.5-1.8l3.8-28.6c0.2-1.1 1.1-1.9 2.2-1.9h474.4c1.2 0 2.2 1 2.2 2.2 0 1.3-1 2.3-2.2 2.3h-472.4l-3.3 24.1h473.4c1.3 0 2.3 1 2.3 2.2 0 1.2-1 2.2-2.3 2.2z"/>
					</g>
					<g id="&lt;Group&gt;">
						<path id="&lt;Path&gt;" class="s1" d="m1212.6 953.3h-55.5l3.7-27.5h55.5z"/>
						<path id="&lt;Path&gt;" class="s1" d="m1259 624h-57.9l3.8-28.5h57.9z"/>
						<path id="&lt;Path&gt;" class="s1" d="m1264.8 580.7h-57.9l3.8-28.6h57.9z"/>
						<path id="&lt;Path&gt;" class="s1" d="m1252.2 671.1h-57.5l3.9-28.5h57.4z"/>
						<path id="&lt;Path&gt;" class="s1" d="m1243.9 718.3h-54.5l3.8-28.6h54.5z"/>
						<path id="&lt;Path&gt;" class="s1" d="m1237.9 765.4h-55.5l3.8-28.6h55.5z"/>
						<path id="&lt;Path&gt;" class="s1" d="m1231.2 812.5h-55.5l3.9-28.6h55.5z"/>
						<path id="&lt;Path&gt;" class="s1" d="m1220.2 904.8h-55l3.9-28.5h54.9z"/>
						<path id="&lt;Path&gt;" class="s1" d="m1225.1 857.7h-52.5l3.8-28.6h52.6z"/>
						<path id="&lt;Path&gt;" class="s1" d="m1193.4 1096.4h-55.6l3.7-27.4h55.6z"/>
						<path id="&lt;Path&gt;" class="s1" d="m1201 1048h-55l3.8-28.6h55z"/>
						<path id="&lt;Path&gt;" class="s1" d="m1205.9 1000.9h-52.6l3.9-28.6h52.5z"/>
						<path id="&lt;Path&gt;" class="s1" d="m1155.9 1375.1h-55.5l3.7-27.4h55.5z"/>
						<path id="&lt;Path&gt;" class="s1" d="m1187.2 1140.1h-54.5l3.8-28.6h54.5z"/>
						<path id="&lt;Path&gt;" class="s1" d="m1181.1 1187.2h-55.4l3.8-28.6h55.5z"/>
						<path id="&lt;Path&gt;" class="s1" d="m1174.5 1234.3h-55.5l3.9-28.5h55.5z"/>
						<path id="&lt;Path&gt;" class="s1" d="m1163.5 1326.7h-55l3.8-28.6h55z"/>
						<path id="&lt;Path&gt;" class="s1" d="m1168.4 1279.6h-52.5l3.8-28.6h52.6z"/>
					</g>
					<g id="&lt;Group&gt;">
						<path id="&lt;Path&gt;" class="s1" d="m963.6 574.5h-274.4l3.7-27.5h274.4z"/>
						<path id="&lt;Compound Path&gt;" class="s1" d="m1011.8 624.4h-289.2c-0.7 0-1.3-0.3-1.7-0.8-0.4-0.5-0.6-1.1-0.5-1.8l3.8-28.5c0.2-1.1 1.1-2 2.2-2h289.3c0.6 0 1.2 0.3 1.7 0.8 0.4 0.5 0.6 1.1 0.5 1.8l-3.9 28.5c-0.1 1.1-1 2-2.2 2zm-286.7-4.5h284.8l3.2-24.1h-284.7z"/>
						<path id="&lt;Compound Path&gt;" class="s1" d="m1087.4 671.5h-336.9c-0.7 0-1.3-0.3-1.7-0.8-0.4-0.5-0.6-1.1-0.6-1.7l3.9-28.6c0.1-1.1 1.1-2 2.2-2h337c0.6 0 1.2 0.3 1.7 0.8 0.4 0.5 0.6 1.1 0.5 1.8l-3.8 28.6c-0.2 1.1-1.1 1.9-2.3 1.9zm-334.4-4.5h332.5l3.2-24.1h-332.4z"/>
						<path id="&lt;Compound Path&gt;" class="s1" d="m1130.7 718.6h-281.3c-0.6 0-1.2-0.3-1.6-0.8-0.5-0.4-0.7-1.1-0.6-1.7l3.9-28.6c0.1-1.1 1.1-1.9 2.2-1.9h281.2c0.6 0 1.3 0.2 1.7 0.7 0.4 0.5 0.6 1.2 0.5 1.8l-3.8 28.6c-0.2 1.1-1.1 1.9-2.2 1.9zm-278.7-4.5h276.7l3.2-24.1h-276.7z"/>
						<path id="&lt;Path&gt;" class="s1" d="m860.8 951.4h-222.3l3.7-27.5h222.3z"/>
						<path id="&lt;Compound Path&gt;" class="s1" d="m864.3 1001.3h-162.6c-0.6 0-1.2-0.3-1.6-0.8-0.5-0.4-0.7-1.1-0.6-1.7l3.9-28.6c0.1-1.1 1.1-1.9 2.2-1.9h162.5c0.6 0 1.3 0.2 1.7 0.7 0.4 0.5 0.6 1.2 0.5 1.8l-3.8 28.6c-0.2 1.1-1.1 1.9-2.2 1.9zm-160-4.5h158l3.3-24.1h-158.1z"/>
						<path id="&lt;Compound Path&gt;" class="s1" d="m922.5 1048.4h-155.6c-0.7 0-1.3-0.3-1.7-0.7-0.4-0.5-0.6-1.2-0.5-1.8l3.8-28.6c0.2-1.1 1.1-1.9 2.2-1.9h155.6c0.6 0 1.3 0.3 1.7 0.8 0.4 0.4 0.6 1.1 0.5 1.7l-3.8 28.6c-0.2 1.1-1.1 1.9-2.2 1.9zm-153.1-4.4h151.1l3.3-24.2h-151.1z"/>
						<path id="&lt;Compound Path&gt;" class="s1" d="m1025.5 1095.5h-196.9c-0.7 0-1.3-0.2-1.7-0.7-0.4-0.5-0.6-1.1-0.5-1.8l3.8-28.6c0.2-1.1 1.1-1.9 2.2-1.9h196.9c0.7 0 1.3 0.3 1.7 0.8 0.4 0.5 0.6 1.1 0.5 1.7l-3.8 28.6c-0.2 1.1-1.1 1.9-2.2 1.9zm-194.4-4.4h192.4l3.3-24.1h-192.4z"/>
						<path id="&lt;Path&gt;" class="s1" d="m866.1 763.5h-198.7l3.8-28.6h198.7z"/>
						<path id="&lt;Compound Path&gt;" class="s1" d="m1113.1 812.8h-307.1c-0.6 0-1.3-0.2-1.7-0.7-0.4-0.5-0.6-1.2-0.5-1.8l3.8-28.6c0.2-1.1 1.1-1.9 2.2-1.9h307.1c0.6 0 1.3 0.3 1.7 0.8 0.4 0.4 0.6 1.1 0.5 1.7l-3.8 28.6c-0.2 1.1-1.1 1.9-2.2 1.9zm-304.6-4.4h302.6l3.3-24.1h-302.6z"/>
						<path id="&lt;Path&gt;" class="s1" d="m855.9 857.7h-198.7l3.8-28.6h198.8z"/>
						<path id="&lt;Compound Path&gt;" class="s1" d="m1102.9 907h-307.1c-0.6 0-1.2-0.3-1.7-0.8-0.4-0.4-0.6-1.1-0.5-1.7l3.9-28.6c0.1-1.1 1-1.9 2.2-1.9h307c0.7 0 1.3 0.2 1.7 0.7 0.4 0.5 0.6 1.2 0.5 1.8l-3.8 28.6c-0.2 1.1-1.1 1.9-2.2 1.9zm-304.5-4.5h302.5l3.3-24.1h-302.6z"/>
						<path id="&lt;Path&gt;" class="s1" d="m860.3 1139.9h-247.1l3.7-27.5h247.1z"/>
						<path id="&lt;Compound Path&gt;" class="s1" d="m1020.3 1189.8h-403.5c-0.7 0-1.3-0.3-1.7-0.8-0.4-0.5-0.6-1.1-0.5-1.7l3.8-28.6c0.1-1.1 1.1-2 2.2-2h403.5c0.6 0 1.2 0.3 1.7 0.8 0.4 0.5 0.6 1.1 0.5 1.8l-3.8 28.5c-0.2 1.2-1.1 2-2.2 2zm-401-4.5h399l3.2-24.1h-398.9z"/>
						<path id="&lt;Compound Path&gt;" class="s1" d="m1018.9 1236.9h-231.7c-0.6 0-1.2-0.3-1.6-0.8-0.5-0.4-0.7-1.1-0.6-1.7l3.9-28.6c0.1-1.1 1.1-1.9 2.2-1.9h231.6c0.7 0 1.3 0.2 1.7 0.7 0.4 0.5 0.6 1.1 0.5 1.8l-3.8 28.6c-0.2 1.1-1.1 1.9-2.2 1.9zm-229.1-4.5h227.1l3.3-24.1h-227.2z"/>
						<path id="&lt;Path&gt;" class="s1" d="m921.7 1328.9h-154.9l-12.5-28.6h171.3z"/>
						<path id="&lt;Compound Path&gt;" class="s1" d="m1065.2 1280.3h-222.2c-0.6 0-1.2-0.3-1.7-0.8-0.4-0.5-0.6-1.1-0.5-1.7l3.8-28.6c0.2-1.1 1.1-2 2.3-2h222.1c0.7 0 1.3 0.3 1.7 0.8 0.4 0.5 0.6 1.1 0.5 1.8l-3.8 28.6c-0.1 1.1-1.1 1.9-2.2 1.9zm-219.6-4.5h217.6l3.3-24.1h-217.7z"/>
						<path id="&lt;Path&gt;" class="s1" d="m967.5 1378.3h-177.3c-1.2 0-2.2-1-2.2-2.3 0-1.2 1-2.2 2.2-2.2h175.4l3.2-24.1h-186.8c-1.2 0-2.2-1-2.2-2.3 0-1.2 1-2.2 2.2-2.2h189.4c0.6 0 1.2 0.3 1.7 0.8 0.4 0.5 0.6 1.1 0.5 1.7l-3.9 28.6c-0.1 1.1-1 2-2.2 2z"/>
					</g>
				</g>
			</g>
			<g id="&lt;Group&gt;">
				<g id="&lt;Group&gt;">
					<g id="&lt;Group&gt;">
						<g id="&lt;Group&gt;">
							<path id="&lt;Path&gt;" class="s2" d="m2083.5 2004.8l-5.6 53.3-35.8 4.3v-63.3z"/>
							<path id="&lt;Compound Path&gt;" class="s1" d="m2042.1 2064.6c-0.6 0-1.1-0.2-1.5-0.6-0.5-0.4-0.7-1-0.7-1.6v-63.3c0-0.7 0.2-1.3 0.7-1.7 0.5-0.4 1.1-0.6 1.8-0.5l41.4 5.7c1.2 0.1 2 1.2 1.9 2.4l-5.5 53.4c-0.2 1-1 1.8-2 2l-35.9 4.2q-0.1 0-0.2 0zm2.2-63v58.3l31.6-3.8 5.2-49.4z"/>
						</g>
						<g id="&lt;Group&gt;">
							<g id="&lt;Group&gt;">
								<path id="&lt;Path&gt;" class="s2" d="m2036.4 2155.3c15 2.1 39.5 4 68.3 0 9.4-1.3 15.6-10.5 13.4-19.8-6.4-25.9-17.3-75.1-36-97.9l-4.7 12.4-6.4-11.7c-0.9-1.6-2.5-2.6-4.3-2.9l-14-1.8c-3-0.3-5.7 1.6-6.3 4.5l-2.3 10.8-8.5-14.1-3.9 52.5c-0.8 11.2-2.5 22.4-5 33.4l-3.8 16.5c-1.2 8.8 4.8 16.9 13.5 18.1z"/>
								<path id="&lt;Compound Path&gt;" class="s1" d="m2070.3 2159.9c-13.7 0-25.4-1.1-34.2-2.4-9.8-1.4-16.8-10.6-15.5-20.6l3.9-16.7c2.5-10.9 4.2-22 5-33.1l3.8-52.5c0.1-0.9 0.8-1.7 1.7-2 1-0.2 2 0.2 2.5 1l5.6 9.3 1.1-5.2c0.8-4.1 4.7-6.8 8.7-6.3l14.1 1.8c2.5 0.3 4.7 1.8 5.9 4l4.1 7.4 3-7.8c0.3-0.7 0.9-1.3 1.7-1.4 0.8-0.1 1.6 0.2 2.1 0.8 17.8 21.6 28.6 66.4 35.1 93.1l1.3 5.6c1.3 5.1 0.3 10.4-2.6 14.7-2.9 4.3-7.5 7.2-12.6 7.9-12.5 1.7-24.2 2.4-34.7 2.4zm-33-118l-3.3 45.6c-0.9 11.3-2.6 22.6-5.1 33.7l-3.9 16.5c-0.9 7.4 4.3 14.3 11.7 15.4 15.3 2.2 39.4 3.9 67.7 0 3.8-0.6 7.3-2.7 9.5-6 2.2-3.2 2.9-7.3 2-11.1l-1.4-5.6c-6-25.1-16-66.4-31.8-88.3l-3.2 8.6c-0.3 0.9-1.1 1.4-1.9 1.5-0.9 0-1.7-0.4-2.1-1.2l-6.5-11.6c-0.5-1-1.5-1.6-2.5-1.8l-14.1-1.8c-1.8-0.2-3.5 1-3.8 2.8l-2.3 10.7c-0.2 0.9-0.9 1.6-1.8 1.7-0.9 0.2-1.8-0.2-2.3-1z"/>
							</g>
							<path id="&lt;Path&gt;" class="s1" d="m2069.2 2144c-18.2 0-29.3-3.9-30-4.1-1.1-0.5-1.7-1.7-1.3-2.9 0.4-1.1 1.7-1.7 2.8-1.3 0.3 0.1 23.9 8.3 58.9 0.3 1.2-0.3 2.4 0.5 2.6 1.7 0.3 1.2-0.4 2.4-1.6 2.7-11.9 2.7-22.5 3.6-31.4 3.6z"/>
							<path id="&lt;Path&gt;" class="s1" d="m2086.5 2103q0 0 0 0l-33.7-1.1c-1.2-0.1-2.1-1.1-2.1-2.3 0-1.3 1.1-2.2 2.3-2.2l33.6 1.1c1.2 0.1 2.2 1.1 2.2 2.3-0.1 1.3-1.1 2.2-2.3 2.2z"/>
						</g>
					</g>
					<g id="&lt;Group&gt;">
						<g id="&lt;Group&gt;">
							<path id="&lt;Path&gt;" class="s2" d="m1915.6 1976.3l-5.4 77.9h-43.2l-2-77.9z"/>
							<path id="&lt;Compound Path&gt;" class="s1" d="m1910.2 2056.5h-43.2c-1.2 0-2.2-1-2.2-2.2l-2-77.9c0-0.6 0.2-1.2 0.6-1.6 0.5-0.4 1-0.7 1.6-0.7h50.6c0.6 0 1.2 0.3 1.6 0.7 0.4 0.5 0.6 1.1 0.6 1.7l-5.4 77.9c-0.1 1.2-1 2.1-2.2 2.1zm-41-4.5h38.9l5.1-73.4h-45.9z"/>
						</g>
						<g id="&lt;Group&gt;">
							<g id="&lt;Group&gt;">
								<path id="&lt;Path&gt;" class="s2" d="m1921.5 2098.2c0.1 7.4-4.9 13.9-12.1 15.5-24.8 5.8-80.6 18.8-96.6 21.2-20.7 3.1-46.1-3.3-57-15.5-11-12.2 24.4-41.3 41.3-51.8 24.9-15.8 48.9-46.8 58.9-48.2 10.1-1.4 28.9 27.9 28.9 27.9l30.7-12.9c0 0 5.3 26.4 5.9 63.8z"/>
								<path id="&lt;Compound Path&gt;" class="s1" d="m1802 2137.9c-19 0-38.6-6.7-47.9-17-2.1-2.4-3-5.4-2.5-8.9 2.2-15.3 30.8-37.8 44.3-46.3 12.2-7.7 24.1-19.1 34.6-29.1 11.3-10.8 19.5-18.6 25.2-19.4 10.1-1.4 25.1 20 30 27.4l29-12.3c0.6-0.2 1.3-0.2 1.9 0.1 0.6 0.3 1 0.9 1.1 1.5 0.1 0.3 5.4 27.1 6 64.3 0.1 8.4-5.7 15.8-13.8 17.7-23.7 5.6-80.7 18.8-96.8 21.2-3.6 0.5-7.3 0.8-11.1 0.8zm54.8-116.3q-0.2 0-0.4 0c-4.4 0.6-13.3 9.1-22.8 18.2-10.7 10.2-22.7 21.7-35.4 29.7-13.8 8.7-40.4 30.3-42.2 43.1-0.3 2.2 0.2 3.9 1.4 5.3 10.2 11.4 34.4 17.9 55.1 14.8 15.9-2.4 72.7-15.6 96.4-21.1 6.1-1.5 10.4-7.1 10.3-13.4-0.4-29.9-4-53.1-5.3-60.7l-28.2 11.9c-1 0.4-2.1 0.1-2.7-0.8-7.3-11.5-20-27-26.2-27z"/>
							</g>
							<path id="&lt;Path&gt;" class="s1" d="m1802.3 2118.8c-13.5 0-25.5-2.2-34.2-7.9-1.1-0.7-1.4-2.1-0.7-3.1 0.7-1.1 2.1-1.3 3.1-0.7 32 21 117.3-10 134-16.5 1.2-0.4 2.5 0.2 2.9 1.3 0.5 1.2-0.1 2.5-1.3 2.9-17.7 6.8-66.2 24-103.8 24z"/>
							<path id="&lt;Path&gt;" class="s1" d="m1850.2 2076.4c-0.5 0-1.1-0.2-1.5-0.6l-17.9-17.5c-0.9-0.9-0.9-2.3 0-3.2 0.8-0.9 2.3-0.9 3.1 0l17.9 17.5c0.9 0.8 0.9 2.2 0 3.1-0.4 0.5-1 0.7-1.6 0.7z"/>
						</g>
					</g>
					<g id="&lt;Group&gt;">
						<g id="&lt;Group&gt;">
							<path id="&lt;Path&gt;" class="s2" d="m2095.7 1468.5c0 0 13.4 243.5 20.4 327.6 7 84.1-16.4 219.2-16.4 219.2l-66.6-3.5c0 0-4.5-164.3-9.5-210 0 0-28.1-61.8-36.4-117-8.4-55.1-36.8-142.3-36.8-142.3 0 0-23 434.9-25.3 469.1 0 0-52.2 2.3-70.9-9.5 0 0-33.2-158.6-28.4-244.9 4.7-86.2-0.5-300.6-0.5-300.6z"/>
							<path id="&lt;Compound Path&gt;" class="s1" d="m2099.7 2017.5q0 0-0.1 0l-66.6-3.5c-1.1-0.1-2.1-1-2.1-2.2 0-1.6-4.6-163.9-9.4-209.4-2.3-5-28.6-64.5-36.5-117.2-6.5-42.5-25-104.7-33-130.3-3.8 71-22.6 426.3-24.6 456.8-0.1 1.2-1 2.1-2.2 2.1-2.1 0.1-53.1 2.3-72.2-9.8-0.5-0.4-0.9-0.9-1-1.5-0.3-1.5-33.2-159.8-28.4-245.4 4.7-85.2-0.5-298.3-0.5-300.5 0-0.6 0.2-1.2 0.6-1.6 0.5-0.4 1.1-0.7 1.7-0.6l270.4 11.9c1.2 0 2.1 1 2.2 2.1 0.1 2.4 13.4 244.4 20.3 327.5 7 83.4-16.1 218.4-16.4 219.8-0.1 1-1.1 1.8-2.2 1.8zm-64.4-7.8l62.6 3.3c2.8-17 22.4-139.4 16-216.7-6.6-79.1-19-302-20.3-325.6l-266-11.8c0.5 23.8 4.9 218 0.4 298.5-4.5 81.5 25.5 230 28.2 243.3 16.4 9.5 57.3 9 66.8 8.7 2.9-46 25-462.7 25.2-467 0.1-1.1 0.9-1.9 1.9-2.1 1.1-0.1 2.1 0.5 2.4 1.5 0.3 0.9 28.6 88 36.9 142.7 8.2 54.2 36 115.8 36.3 116.4q0.1 0.4 0.2 0.7c4.6 42.4 8.9 188.9 9.4 208.1z"/>
						</g>
						<path id="&lt;Path&gt;" class="s1" d="m2056.3 1804.1h-20.4c-1.2 0-2.2-1-2.2-2.3 0-1.2 1-2.2 2.2-2.2h20.4c1.2 0 2.2 1 2.2 2.2 0 1.3-1 2.3-2.2 2.3z"/>
						<path id="&lt;Path&gt;" class="s1" d="m1890.9 1930.5c-1.2 0-2.2-0.9-2.2-2.1-0.8-39.1-45.4-112.5-45.8-113.2-0.7-1.1-0.4-2.4 0.7-3.1 1-0.6 2.4-0.3 3.1 0.8 1.8 3 45.7 75.1 46.4 115.4 0 1.2-0.9 2.2-2.2 2.2q0 0 0 0z"/>
					</g>
				</g>
				<g id="&lt;Group&gt;">
					<g id="&lt;Group&gt;">
						<path id="&lt;Path&gt;" class="s2" d="m1784.3 1083.3c-3.7-0.3-34.4 52.4-48.9 77.5-4.1 7.2-13.2 9.5-20.2 5.2l-112.9-69.7c-9.2-5.6-17.1-13.3-23-22.3-9.5-14.4-15.1-29-27.7-39.2-10.2-8.3-20.6-17.5-23.7-19.9-2-1.5-11 4.9-4.2 16.4 2.1 3.5 9.9 10.6 12 13.8 3.5 5.2 3.5 12.1-0.3 16.9-4.1 5.2-7.5 13.6-2.9 25.2 6.7 17.1 21.9 21.4 30.6 22.4 4.3 0.5 8.3 2.6 11.2 5.9l104.1 119.3c16.2 18.5 43.2 22.7 64.1 9.9 33.9-20.6 77.5-62.3 108.9-115z"/>
						<path id="&lt;Compound Path&gt;" class="s1" d="m1716.3 1254.4c-14.7 0-29.2-6.3-39.6-18.1l-104.1-119.3c-2.5-2.9-6-4.8-9.8-5.2-9-1-25.2-5.5-32.4-23.8-5-12.8-1-21.9 3.2-27.3 3.2-4.1 3.3-9.8 0.3-14.3-0.9-1.4-3.1-3.7-5.3-6-2.7-2.9-5.6-5.9-6.8-8-5-8.3-2.6-14.9 1-18 2.2-2 4.8-2.5 6.4-1.3 1.4 1.1 4 3.3 7.3 6.1 4.5 3.8 10.6 9.1 16.5 13.9 9.3 7.4 14.8 17 20.6 27.2 2.4 4.1 4.8 8.3 7.5 12.4 5.7 8.7 13.5 16.2 22.4 21.7l112.9 69.7c2.8 1.8 6.2 2.3 9.4 1.5 3.3-0.9 6-2.9 7.7-5.9 45.4-79.1 48.7-78.8 50.9-78.6q0.6 0 1.1 0.4l67.1 46.4c1 0.6 1.3 1.9 0.7 2.9-33.8 56.7-78.8 97-109.6 115.8-8.5 5.2-18 7.8-27.4 7.8zm-189.4-237.4c-0.6 0.2-1.8 1-2.7 2.6-1 2-1.6 5.5 1.4 10.5 1 1.7 3.8 4.6 6.2 7.2 2.4 2.6 4.7 4.9 5.8 6.6 4 6.1 3.9 13.9-0.5 19.5-5.1 6.6-5.9 14.3-2.5 23 6.3 16.1 20.7 20 28.7 21 4.9 0.5 9.4 2.9 12.7 6.6l104.1 119.4c15.5 17.7 41.2 21.7 61.2 9.4 30.1-18.3 73.9-57.5 107.1-112.5l-64.2-44.3c-3.9 4-18 25.7-46.8 76-2.3 3.9-6 6.8-10.5 7.9-4.4 1.1-9 0.4-12.9-2l-112.8-69.7c-9.5-5.8-17.8-13.8-23.8-23-2.8-4.3-5.3-8.5-7.6-12.7-5.7-9.8-11-19-19.6-26-6-4.8-12.1-10-16.6-13.9-3-2.5-5.4-4.6-6.7-5.6z"/>
					</g>
					<g id="&lt;Group&gt;">
						<path id="&lt;Path&gt;" class="s1" d="m2171.6 1181.3c0 0 7.5-138.7-97.4-177.7-81.2-30.2-184.9-17.2-217.4-5.9-80 27.8-119.4 133.5-119.4 133.5l93.8 13.2c0 0-28.3 303.8-16 371.5 0 0 75.4 8.9 107.4-3.8 32.1-12.7 137.3-30.5 187.6-7.2l-9.1-324.9z"/>
						<path id="&lt;Compound Path&gt;" class="s1" d="m1868.4 1521.2c-26.9 0-51.7-2.8-53.5-3-1-0.2-1.8-0.9-1.9-1.9-11.8-65 13.1-340.7 15.8-370l-91.7-12.9c-0.7-0.1-1.3-0.5-1.6-1.1-0.4-0.6-0.4-1.3-0.2-1.9 0.4-1.1 40.7-107 120.8-134.8 35.4-12.3 139.4-23.6 218.9 5.9 43.6 16.2 74.5 52.5 89.4 104.9 11.2 39.5 9.4 74.7 9.4 75-0.1 1.2-1 2.1-2.2 2.1q0 0-0.1 0l-68.1-1.2 9.1 322.5c0 0.8-0.4 1.5-1 2-0.7 0.4-1.5 0.5-2.2 0.1-50.2-23.2-154.3-5.2-185.8 7.3-13.8 5.4-35 7-55.1 7zm-51.3-7.3c11.2 1.2 76.2 7.4 104.7-3.9 31.4-12.4 133.6-30.1 186.1-8.5l-9.1-321.5c0-0.6 0.3-1.2 0.7-1.6 0.4-0.4 1.1-0.6 1.6-0.6l68.3 1.2c0.4-17.6-0.9-138-96-173.3-78.4-29.2-180.9-18-215.9-5.9-71.1 24.7-110.3 113.2-117 129.6l91 12.8c1.2 0.2 2 1.2 1.9 2.4-0.3 3-27.7 299.5-16.3 369.3z"/>
					</g>
					<path id="&lt;Path&gt;" class="s2" d="m2040.9 1440.2q-0.2 0-0.4-0.1c-122.4-21.7-158.3-107.5-158.6-108.4-0.5-1.1 0.1-2.4 1.2-2.9 1.2-0.4 2.5 0.1 2.9 1.2 0.4 0.9 35.4 84.4 155.3 105.7 1.2 0.3 2 1.4 1.8 2.6-0.2 1.1-1.2 1.9-2.2 1.9z"/>
					<g id="&lt;Group&gt;">
						<path id="&lt;Path&gt;" class="s2" d="m1817.1 1293h153.7l-48.2-172.7h-153.6z"/>
						<path id="&lt;Compound Path&gt;" class="s1" d="m1970.8 1295.3h-153.7c-1 0-1.9-0.7-2.1-1.7l-48.2-172.7c-0.1-0.7 0-1.4 0.4-2 0.4-0.5 1.1-0.9 1.8-0.9h153.6c1 0 1.9 0.7 2.2 1.7l48.1 172.7c0.2 0.7 0.1 1.4-0.4 2-0.4 0.5-1 0.9-1.7 0.9zm-152-4.5h149l-46.9-168.3h-149z"/>
					</g>
					<g id="&lt;Group&gt;">
						<path id="&lt;Path&gt;" class="s2" d="m2153.4 1181.4l-67.6-3.1c0 0-0.5 57.3-6.6 58.3-21.7 3.7-67.2 3.9-96.8 0.3-10.3-1.3-18.5-9.2-20.4-19.5-1.5-7.7-5.7-16.9-16.2-23.4-10.3-6.3-0.2 13.6-9.7 26.4-5.2 6.9-21.4 3.9-43.6-1.3-22.2-5.2-27.9 18.7-3 33.1 27 15.6 44.1 13.9 52.7 15.7 17.1 3.7 168.5 27.6 191.9 14.8 18-9.9 19.3-101.3 19.3-101.3z"/>
						<path id="&lt;Compound Path&gt;" class="s1" d="m2104.7 1288.7c-54 0-154.4-16.8-163-18.6-1.7-0.4-3.9-0.6-6.4-0.8-10.1-1.1-25.3-2.6-46.9-15.2-15.7-9-19.5-21.5-16.4-29.2 2.2-5.7 8.9-10.8 21-8 20 4.7 36.9 8.1 41.3 2.2 4.2-5.7 4.2-13.3 4.1-18.8 0-4.6 0-7.9 2.4-9.3 2.1-1.1 4.5 0.1 6.1 1.1 9.3 5.7 15.3 14.4 17.3 24.9 1.8 9.4 9.2 16.5 18.5 17.7 29.1 3.5 73.8 3.4 95.8-0.2 2.9-3.5 4.9-31.6 5.1-56.2 0-0.6 0.2-1.2 0.7-1.6 0.4-0.4 1-0.6 1.6-0.6l67.6 3.1c1.2 0 2.1 1 2.1 2.2-0.1 9.5-1.8 93-20.5 103.2-5.2 2.9-16.2 4.1-30.4 4.1zm-218.1-68.1c-5.1 0-9 2.1-10.5 5.9-2.4 6 1.2 16 14.5 23.8 20.8 12 35.4 13.5 45.1 14.5 2.7 0.3 5 0.5 7 0.9 17.4 3.8 167.9 27.3 190.3 15 13.5-7.4 17.6-70.6 18.1-97.2l-63.1-2.8c-0.1 4.6-0.3 15.6-1 26.5-1.7 28.3-4.6 31.2-7.4 31.6-22.3 3.8-67.8 3.9-97.5 0.3-11.2-1.4-20.2-9.9-22.3-21.3-1.8-9.4-6.9-16.8-15.2-21.9-0.7-0.5-1.2-0.7-1.5-0.8-0.2 1-0.2 3.4-0.2 5.1 0 5.8 0.1 14.6-5.1 21.6-6 8-22.8 4.8-45.8-0.5q-2.9-0.7-5.4-0.7z"/>
					</g>
				</g>
				<g id="&lt;Group&gt;">
					<g id="&lt;Group&gt;">
						<g id="&lt;Group&gt;">
							<path id="&lt;Path&gt;" class="s2" d="m1920.7 1000.2c0 0 17.5-10.8 17.3-17.1l5-32.3c0.1-2.9-1.8-5.6-4.5-6.6l-20.7-7.1c-2.6-0.9-4.3-3.5-4.2-6.3l1.7-25.7-8.1-7.2c-0.7-0.6-0.8-1.5-0.2-2.2l12.8-15.6c4.2-5.9 8.4-20 11.8-19 0 0 73-8.5 76.6 28.3 0.5 5.4-1.1 10.7-4.2 15l-6.5 9.2c-6.5 9.1-9.9 20.3-8.7 31.5 0.2 2.4 3.2 17.4 5.3 27.3 1.1 5.6 4.2 10.6 8.8 14.1 5.7 4.4 12.6 10 11.5 10.4 0 0-8.1 5.9-20.9 11.2-22.6 9.3-48.4 7-69.3-5.8z"/>
							<path id="&lt;Compound Path&gt;" class="s1" d="m1964.7 1015.9c-14.4 0-28.9-3.9-41.7-11.7l-3.5-2.1c-0.6-0.4-1-1.1-1-1.9 0-0.8 0.4-1.5 1-1.9 7.9-4.9 16.4-12 16.3-15.1q0-0.2 0-0.4l5-32.2c0-1.9-1.2-3.6-3-4.3l-20.7-7.1c-3.6-1.2-5.9-4.8-5.7-8.6l1.6-24.6-7.3-6.4c-1.6-1.4-1.8-3.7-0.4-5.3l12.8-15.6c1.3-2 2.9-5.3 4.4-8.5 3.1-6.6 5.5-11.9 9.2-11.4 4.7-0.5 48.1-4.7 68.4 11.7 6.1 4.9 9.5 11.2 10.3 18.7 0.5 5.7-1.1 11.6-4.6 16.5l-6.5 9.1c-6.4 9.1-9.4 19.8-8.3 30.1 0.1 1 0.9 5.8 5.2 27 1.1 5.1 3.9 9.7 8 12.8 12.9 10 12.8 10.9 12.5 12.4-0.1 0.6-0.5 1.2-1 1.5-0.3 0.3-8.4 6.2-21.3 11.5-9.5 3.9-19.6 5.8-29.7 5.8zm-39.8-15.8l0.4 0.3c20.5 12.5 45.6 14.6 67.4 5.6 8.9-3.7 15.6-7.8 18.6-9.7-1.3-1.3-4.1-3.6-9.8-8-4.9-3.8-8.4-9.3-9.6-15.5-3.4-16.3-5.2-25.6-5.4-27.4-1.1-11.4 2.1-23.2 9.2-33.1l6.5-9.2c2.8-4 4.2-8.8 3.7-13.5-0.6-6.3-3.4-11.4-8.6-15.6-19.5-15.8-65-10.8-65.4-10.7q-0.3 0-0.5 0c-1.2 0.9-3.5 5.8-4.9 8.8-1.6 3.4-3.2 6.9-4.9 9.3l-12.5 15.2 7.6 6.8c0.6 0.5 0.8 1.1 0.8 1.8l-1.6 25.7c-0.1 1.8 1 3.5 2.6 4.1l20.7 7.1c3.7 1.3 6.1 4.8 6.1 8.7q-0.1 0.2-0.1 0.4l-4.9 32.1c-0.1 5.8-10 13.2-15.4 16.8z"/>
						</g>
						<path id="&lt;Path&gt;" class="s1" d="m1929.2 805c16.6-0.8-4.4 16.3 57.2-1.4 24.5-7 11.9 21.8 18.3 19.9 23.5-6.6 22.7-6.4 34.1-3.3 7.6 2 12.4 16.2 10.9 26.8-1.9 13.9-17.6 36-31.6 59.3-7.2 12.1-20 13.2-35.5-4.8-1.7-1.9 6.8-13.2 2.4-18-11.5-12.7-16.6 6.4-25.8 0.5-8.9-5.6-12.5-9.3-21.9-17.9-11.4-10.3-30.4 5.8-37-17.5-3.4-12.2 6.1-42.4 28.9-43.6z"/>
					</g>
				</g>
			</g>
			<g id="&lt;Group&gt;">
				<g id="&lt;Group&gt;">
					<g id="&lt;Group&gt;">
						<g id="&lt;Group&gt;">
							<g id="&lt;Group&gt;">
								<path id="&lt;Path&gt;" class="s2" d="m1384.7 2079.8c0 0 5.1 0 10-3.4 15.1-10.7 46.5-34.6 67.9-31.6 35.9 5 40.2 34.3 40.2 34.3 0 0 30.2-1.1 29.6 19-0.4 15.5-9.2 35.1-33.7 45.9-33.4 14.7-66.8 26-103.7 1.8-7.2-4.7-15.7-6.9-24.2-6-20.8 2-329.9 8.7-329.9 8.7-70.7 0-135.5-39.2-168.3-101.8l-65.2-124.3 74.6-208.6 117.1 271.9c56.7 77.4 379.7 95.5 385.6 94.1z"/>
								<path id="&lt;Compound Path&gt;" class="s1" d="m1440 2162c-14.9 0-30.3-3.9-46.3-14.3-6.8-4.5-14.8-6.5-22.7-5.7-20.6 2.1-317.4 8.5-330 8.7-71.8 0-137.1-39.4-170.4-103l-65.2-124.3c-0.3-0.5-0.3-1.2-0.1-1.8l74.6-208.5c0.4-0.9 1.2-1.5 2.1-1.5 0.9 0 1.7 0.5 2.1 1.4l116.9 271.6c55 74.3 370.9 94.6 383.4 93 0.1 0 0.2 0 0.4 0 0.1 0 4.5-0.1 8.6-3l3.5-2.5c16.9-12.1 45.2-32.4 66-29.5 31.7 4.4 39.9 27.4 41.6 34.2 4.9 0.1 17.9 1.1 25.1 8.3 3.5 3.4 5.2 7.8 5.1 13.1-0.3 7.7-3.5 33.9-35.1 47.9-19 8.3-38.9 15.9-59.6 15.9zm-65.6-24.6c7.6 0 15.2 2.2 21.8 6.5 36.1 23.7 68.7 12.6 101.6-1.9 29.2-12.9 32.2-36.9 32.4-44 0.1-4-1.1-7.2-3.7-9.8-7.5-7.4-23.5-6.9-23.7-6.9q0 0 0 0c-1.2 0-2.1-0.8-2.3-1.9-0.1-1.1-4.5-27.7-38.2-32.4-19-2.7-47.5 17.7-62.8 28.7l-3.5 2.5c-5.4 3.8-11.1 3.8-11.3 3.9-7.7 0.4-88.4-4-174.1-17.6-80.8-12.8-183.4-36.6-213.3-77.4q-0.2-0.2-0.3-0.5l-114.8-266.7-72.4 202.3 64.7 123.4c32.6 62.1 96.3 100.7 166.4 100.7 3.1-0.1 309.2-6.7 329.6-8.8q2-0.1 3.9-0.1z"/>
							</g>
							<g id="&lt;Group&gt;">
								<g id="&lt;Group&gt;">
									<path id="&lt;Path&gt;" class="s2" d="m1303.5 2023.9l29.9-52.3 24.6 15.9c1.3 0.9 2.5 2.1 3.3 3.5l1.4 2.5c1.9 3.2 5.3 5.2 8.9 5.1 2 0 4 0.6 5.6 1.6l182.5 118.2q2.3 1.5 4.1 3.5l36.9 40.9-51.4-11.6c-2.8-0.7-5.5-1.7-8-3l-192.1-100.4c-1.6-0.8-3-2.1-4-3.7l-0.2-0.4c-1.9-3-5.2-4.9-8.7-4.9h-1.8c-1.6 0-3.2-0.4-4.7-1.1z"/>
									<path id="&lt;Compound Path&gt;" class="s1" d="m1600.7 2165q-0.3 0-0.5-0.1l-51.4-11.6c-2.9-0.6-5.8-1.7-8.6-3.1l-192-100.4c-2-1-3.7-2.6-4.9-4.5l-0.2-0.4c-1.4-2.4-4-3.8-6.7-3.8q-0.1 0-0.1 0h-1.7q-0.1 0-0.1 0c-2 0-3.9-0.5-5.7-1.4l-26.3-13.8c-0.5-0.3-0.9-0.8-1.1-1.3-0.2-0.6-0.1-1.3 0.2-1.8l29.9-52.3c0.3-0.5 0.8-0.9 1.4-1.1 0.6-0.1 1.2 0 1.7 0.3l24.6 16c1.6 1 3 2.5 4 4.2l1.5 2.5c1.4 2.5 4 4 6.8 4q0.1 0 0.3 0c2.3 0 4.6 0.7 6.6 2l182.5 118.1q2.5 1.7 4.5 3.9l36.9 40.9c0.7 0.7 0.8 1.8 0.3 2.6-0.4 0.7-1.2 1.1-1.9 1.1zm-264.3-128.4c4.2 0 8.3 2.3 10.5 5.9l0.2 0.4c0.8 1.3 1.9 2.3 3.2 2.9l192 100.4c2.4 1.3 4.9 2.2 7.5 2.8l44.5 10-32.2-35.6q-1.6-1.8-3.6-3.1l-182.5-118.2c-1.3-0.8-2.8-1.3-4.3-1.3q-0.1 0-0.2 0c-4.4 0-8.5-2.3-10.7-6.2l-1.5-2.5c-0.6-1.1-1.5-2-2.5-2.7l-22.6-14.6-27.6 48.2 24.3 12.7q1.7 0.9 3.6 0.9h1.8q0 0 0.1 0z"/>
								</g>
								<path id="&lt;Path&gt;" class="s1" d="m1550.5 2143.7q-0.6 0-1-0.2c-1.1-0.6-1.6-1.9-1-3l11-21.2c0.5-1.1 1.9-1.6 3-1 1.1 0.6 1.5 1.9 0.9 3l-10.9 21.2c-0.4 0.8-1.2 1.2-2 1.2z"/>
								<g id="&lt;Group&gt;">
									<path id="&lt;Path&gt;" class="s1" d="m1290.9 1945.7l43.5 26.3-30.7 52.2-43.5-26.3c-7.9-4.8-10.7-15-6.1-22.9l14.1-23.8c4.6-7.9 14.8-10.3 22.7-5.5z"/>
									<path id="&lt;Compound Path&gt;" class="s1" d="m1303.7 2026.5q-0.6 0-1.1-0.4l-43.5-26.3c-9-5.4-12.1-17-6.9-25.9l14.1-23.9c2.4-4.2 6.4-7.2 11.2-8.4 5-1.3 10.1-0.5 14.6 2.2l43.5 26.3c1 0.6 1.4 2 0.7 3l-30.6 52.3c-0.3 0.5-0.8 0.8-1.4 1q-0.3 0.1-0.6 0.1zm-21.5-81q-1.8 0-3.6 0.4c-3.6 0.9-6.6 3.2-8.5 6.4l-14 23.9c-4 6.7-1.6 15.7 5.3 19.8l41.6 25.1 28.4-48.3-41.6-25.2c-2.4-1.4-5-2.1-7.6-2.1z"/>
								</g>
								<path id="&lt;Path&gt;" class="s1" d="m1346.6 2033.6q-0.6 0-1.2-0.3c-1-0.7-1.4-2-0.8-3.1l14.8-24.6c0.7-1 2.1-1.4 3.1-0.7 1.1 0.6 1.4 2 0.8 3l-14.8 24.6c-0.5 0.7-1.2 1.1-1.9 1.1z"/>
								<path id="&lt;Path&gt;" class="s1" d="m1433.9 2054.4q-0.6 0-1.2-0.4l-54.5-34.1c-1-0.7-1.3-2.1-0.7-3.1 0.7-1.1 2.1-1.4 3.1-0.7l54.5 34.2c1 0.6 1.3 2 0.7 3-0.5 0.7-1.2 1.1-1.9 1.1z"/>
								<path id="&lt;Path&gt;" class="s1" d="m1547.4 2124.8q-0.6 0-1.2-0.3l-21.3-13.3c-1-0.6-1.3-2-0.7-3.1 0.7-1 2.1-1.3 3.1-0.7l21.3 13.3c1 0.6 1.3 2 0.7 3-0.4 0.7-1.2 1.1-1.9 1.1z"/>
								<path id="&lt;Path&gt;" class="s3" d="m1298.9 2005.5q-0.6 0-1.2-0.4l-33.1-20.3c-1.1-0.7-1.4-2-0.8-3.1 0.7-1 2.1-1.4 3.1-0.7l33.2 20.3c1 0.7 1.3 2 0.7 3.1-0.4 0.7-1.2 1.1-1.9 1.1z"/>
							</g>
							<path id="&lt;Path&gt;" class="s2" d="m1384.7 2079.8c0 0 44.6-5.5 72.9-1.6 22.1 3.1 87.5-12.6 73.9 29.7-3 9.1-4.5 15.1-12.6 23.7-4.5 4.7-16.6 14.4-23.4 17.5-33.4 14.7-63.7 20.9-100.6-3.4-7.2-4.7-15.6-6.8-24.1-5.9-5 0.5 12.4-59.6 13.9-60z"/>
							<path id="&lt;Path&gt;" class="s1" d="m1444.6 2164.2c-16.3 0-32.9-4.8-51-16.6-6.7-4.4-14.7-6.4-22.6-5.6-5.4 0.5-22.9 1.1-23.6 1.2-1.2 0-2.3-1-2.3-2.2 0-1.2 0.9-2.3 2.1-2.3 0.2 0 18.1-0.6 23.4-1.2 8.9-0.9 17.9 1.4 25.5 6.4 35.4 23.2 63.9 18.4 98.5 3.1 6.4-2.8 18.3-12.2 22.7-16.9 7.1-7.6 8.9-13 11.5-21.1l0.5-1.8c2.6-7.9 2.3-13.6-0.6-17.6-6.7-8.9-26.4-8.3-43.8-7.8-11 0.3-21.3 0.6-27.9-1.5-33.7-10.4-71.2 1.5-71.6 1.6-1.8 0.5-6.7 0.3-18-0.4-1.3-0.1-2.2-1.2-2.1-2.4 0.1-1.2 1.1-2.2 2.4-2.1 9.8 0.7 15.4 0.9 16.6 0.7 1.3-0.5 39-12.5 74-1.6 5.9 1.8 15.9 1.5 26.5 1.2 18.5-0.5 39.4-1.1 47.4 9.6 3.9 5.2 4.4 12.5 1.4 21.7l-0.6 1.8c-2.7 8.3-4.6 14.4-12.5 22.8-4.6 4.9-17.1 14.8-24.1 17.9-17.9 7.9-34.7 13.1-51.8 13.1z"/>
						</g>
						<g id="&lt;Group&gt;">
							<path id="&lt;Path&gt;" class="s2" d="m699.9 1567.7c0 0 137.1 18.2 182.7 73.7 57.7 70.3 82.6 174.8 90.6 219.9 2.4 13.3 2.1 26.8-0.8 40l-3.4 15.1c-11.8 53.2-60.3 90.1-114.8 87.3h2.7c-8.8-0.5-21.6-3.4-25.3-11.4l-14.4-26.3-1.4 9.5c-10.8 69.9 45.7 165.8 45.7 165.8l-162.2-21.9c-83.4-8.4-162.7-41.2-226.3-95.7-34.6-29.6-61.3-57.3-72.8-90.9-19.6-57.1-17.8-73.3-23.3-142.6-3.7-47.1 10.1-94.2 39.7-131.1 43.4-54.3 127.1-111.2 283.3-91.4z"/>
							<path id="&lt;Compound Path&gt;" class="s1" d="m861.5 2143.5q-0.1 0-0.3 0l-162.2-21.9c-85.3-8.6-164-41.8-227.5-96.2-30.8-26.4-61.1-55.8-73.4-91.9-16.6-48.2-17.9-67.3-21.2-113.6-0.6-8.7-1.3-18.4-2.2-29.5-3.9-48.5 10.4-95.6 40.1-132.7 42.6-53.2 126.7-112.3 285.4-92.2q0 0 0 0c5.6 0.8 138.5 18.9 184.1 74.5 61.2 74.6 85.2 187.9 91.1 220.9 2.5 13.6 2.2 27.4-0.8 40.9l-3.4 15.1c-12.1 54.4-61.3 91.9-117.1 89q-0.6-0.1-1-0.3c-9.7-1.2-20.1-4.9-23.6-12.3l-11.1-20.3-0.4 2.8c-10.6 68.4 44.9 163.4 45.4 164.3 0.5 0.8 0.4 1.7 0 2.4-0.5 0.6-1.2 1-1.9 1zm-222.4-577.6c-118.1 0-184.7 49.5-220.8 94.6-29 36.2-42.9 82.2-39.2 129.6 0.9 11 1.6 20.7 2.2 29.5 3.3 45.8 4.6 64.8 21 112.5 12 35 41.8 63.9 72.1 89.9 62.8 53.8 140.7 86.7 225.1 95.2l157.8 21.3c-10.6-19-53.4-100.6-43.7-163.3l1.3-9.5c0.2-0.9 0.9-1.7 1.9-1.9 0.9-0.1 1.8 0.3 2.3 1.1l14.4 26.3c3.2 6.9 14.7 9.8 23.5 10.2q0.4 0.1 0.6 0.2c52.2 1.1 97.9-34.4 109.3-85.7l3.3-15.1c2.9-12.9 3.2-26.1 0.8-39.1-5.8-32.7-29.6-145.1-90.1-218.9-44.5-54.2-180-72.7-181.3-72.9-21.5-2.7-41.7-4-60.5-4z"/>
						</g>
						<path id="&lt;Path&gt;" class="s1" d="m826.5 1992.9c-0.9 0-1.7-0.4-2.1-1.2l-38.4-80.7c-0.5-1.1 0-2.4 1.1-3 1.1-0.5 2.4 0 3 1.1l38.4 80.7c0.5 1.1 0 2.4-1.1 2.9q-0.4 0.2-0.9 0.2z"/>
					</g>
					<g id="&lt;Group&gt;">
						<path id="&lt;Path&gt;" class="s1" d="m721.4 1293l10.1-6.7c8-5.4 11.4-15.6 8.1-24.7-10.1-27.4-47-75-181.2-38.8-136.9 36.9-112.7 256.4 3.9 303.3 116.6 47 156.1-194.2 156.1-194.2z"/>
						<g id="&lt;Group&gt;">
							<path id="&lt;Path&gt;" class="s2" d="m704.6 1298c1.5-8.3 12.7-10.2 16.9-2.8 10.2 18 15.1 30.5 16.7 38.1 2.2 10.3-7.3 20.5-2.2 31.5 5.2 11 13.2 23.5 14 43.3 0.7 19.3 20.3 108-48.6 105.2-2.7-0.1-4.9 2-4.9 4.7 0.2 13.5 0.9 50.6 3.9 70.7 1.6 11-5.2 21.4-15.9 24.4-27.5 7.8-78.9 18.7-117.3 6.2-10-3.2-15.2-14.2-11.6-24 4.5-12.6 10.8-48.1 6.7-69.2 0 0 23-2.2 48.6-14 39.4-18 58.7-62 47.9-104-2.4-9-7.4-21.8-2.2-35.4 13.6-35 34 0.2 34 0.2z"/>
							<path id="&lt;Compound Path&gt;" class="s1" d="m607.7 1627.2c-14.2 0-28.4-1.6-41.2-5.7-5.3-1.8-9.7-5.5-12.1-10.6-2.6-5.2-2.9-11-0.9-16.4 4.4-12.2 10.7-47.2 6.6-67.9-0.1-0.6 0-1.3 0.4-1.8 0.4-0.5 0.9-0.8 1.6-0.9 0.2 0 22.9-2.4 47.9-13.8 37.7-17.3 57.4-60 46.6-101.4q-0.5-1.8-1-3.8c-2.5-8.7-5.9-20.5-1-33 4.1-10.7 9.5-16.4 15.9-16.9 7.9-0.6 15 7 18.9 12.2l13-69.6c0.8-4.7 4.5-8.3 9.2-9.1 4.8-0.8 9.4 1.4 11.8 5.6 11.5 20.2 15.6 32.2 17 38.8 1.1 5-0.3 9.9-1.7 14.7-1.6 5.6-3.2 10.9-0.6 16.3q1.2 2.7 2.7 5.6c4.8 9.6 10.8 21.5 11.4 38.5 0.1 2.4 0.5 6 0.9 10.1 2.4 21.8 6.9 62.5-13 83.9-9 9.6-22.1 14.2-38.8 13.5-0.7 0-1.3 0.2-1.8 0.7-0.5 0.5-0.8 1.1-0.8 1.8 0.2 14.6 1 50.7 3.9 70.4 1.8 12-5.7 23.5-17.5 26.8-18.5 5.3-48.1 12-77.4 12zm-42.8-99.1c3.4 21.9-2.7 55.4-7.2 67.9-1.6 4.3-1.3 8.8 0.7 12.9 1.9 4 5.3 6.9 9.5 8.3 37.9 12.4 89 1.4 116-6.3 9.6-2.7 15.7-12.1 14.3-21.9-3-19.9-3.7-56.3-3.9-71-0.1-1.9 0.7-3.6 2.1-5 1.3-1.3 3.2-2 5.1-1.9 15.4 0.6 27.2-3.5 35.3-12.2 18.6-19.8 14.2-59.2 11.9-80.3-0.5-4.4-0.9-7.9-1-10.4-0.5-16-6-27-10.9-36.7q-1.5-2.9-2.8-5.7c-3.2-6.9-1.3-13.6 0.4-19.5 1.3-4.4 2.5-8.5 1.7-12.5-1.1-5.1-4.7-16.7-16.6-37.5-1.7-3.1-4.8-3.8-7.1-3.4-2.3 0.4-5 2-5.6 5.5l-14 74.9c-0.2 0.9-0.9 1.7-1.8 1.8-0.9 0.2-1.9-0.3-2.3-1.1-2.5-4.2-10.4-15.1-17.8-14.5-4.6 0.3-8.7 5.1-12.2 14-4.3 11.1-1.3 21.7 1.2 30.2q0.5 2 1 3.9c11.3 43.5-9.3 88.3-49.1 106.5-21.1 9.8-40.3 13.1-46.9 14z"/>
						</g>
						<path id="&lt;Path&gt;" class="s1" d="m503.3 1267.1c0 0-67.4-32.1-116.3 13.8-49 45.9-96.4 146.9-23 257.1 46.2 69.2 63.9 124 70.8 155.1 2.2 10.4 15.9 13 21.8 4.2 29.6-44.4 83.5-142.3 57.4-234.3-35.2-123.9-10.7-195.9-10.7-195.9z"/>
						<path id="&lt;Path&gt;" class="s1" d="m750.2 1399.4c-0.8 0-1.5-0.3-2-1-0.6-1.1-0.2-2.5 0.8-3.1 22.1-13.3 7.8-50.7 3.8-60l-62.5 31.9c-1.1 0.6-2.4 0.2-3-0.9-0.6-1.1-0.1-2.5 1-3l64.6-33c0.5-0.3 1.1-0.3 1.7-0.2 0.6 0.2 1.1 0.7 1.3 1.2 1 2.1 24 50.7-4.6 67.8q-0.5 0.3-1.1 0.3z"/>
						<path id="&lt;Path&gt;" class="s1" d="m752.9 1425.1c-0.5 0-1.1-0.2-1.5-0.7-0.9-0.9-0.9-2.3 0-3.1l8.8-8.8c2.7-2.6 3-6.8 0.8-9.9l-6-8.4c-0.8-1-0.5-2.4 0.5-3.1 1-0.8 2.4-0.5 3.1 0.5l6 8.4c3.5 4.9 3 11.5-1.3 15.7l-8.8 8.7c-0.4 0.5-1 0.7-1.6 0.7z"/>
						<path id="&lt;Path&gt;" class="s1" d="m684 1432.8c-1.4 0-2.9-0.2-4.5-0.6-7.6-1.9-14.2-8.4-19.5-19.4-0.5-1.1-0.1-2.4 1.1-3 1.1-0.5 2.4 0 2.9 1.1 4.7 9.7 10.2 15.4 16.5 16.9 6.7 1.7 12.1-2.1 12.2-2.1 1-0.7 2.4-0.5 3.1 0.5 0.7 1 0.5 2.3-0.5 3.1-0.2 0.1-4.8 3.5-11.3 3.5z"/>
						<g id="&lt;Group&gt;">
							<path id="&lt;Path&gt;" class="s2" d="m486.3 1261.1c0 0 62.6 18.8 37 78.8 0 0 28.9-20.8 28.2-53.4-0.8-32.6-24.9-43.2-41-42.8-16.1 0.4-24.2 17.4-24.2 17.4z"/>
							<path id="&lt;Compound Path&gt;" class="s1" d="m523.3 1342.1c-0.5 0-1-0.1-1.4-0.4-0.8-0.7-1-1.7-0.6-2.7 7.2-17 7.9-32.2 1.8-45.2-10.3-22.2-37.1-30.5-37.4-30.6-0.6-0.2-1.1-0.6-1.4-1.2-0.3-0.6-0.2-1.3 0-1.9 0.4-0.7 8.9-18.2 26.1-18.6 10-0.3 20.1 3.2 27.8 9.5 6.8 5.6 15.1 16.4 15.5 35.4 0.8 33.4-27.9 54.4-29.1 55.3-0.4 0.3-0.8 0.4-1.3 0.4zm-33.7-82.3c7.4 2.8 28.2 12.1 37.5 32.1 5.6 12 6.1 25.6 1.4 40.5 8.2-8.1 21.2-24.5 20.7-45.9-0.3-13.7-5.1-24.8-13.9-32-6.7-5.6-16-8.7-24.8-8.6-11.1 0.3-18.2 9.6-20.9 13.9z"/>
						</g>
					</g>
				</g>
				<g id="&lt;Group&gt;">
					<path id="&lt;Path&gt;" class="s1" d="m367 1774c51.7 31.2 156.7 75.7 325.7 65.4 12.4-0.8 23.9 6.6 28.3 18.3l10.6 42.2c18.5 74.2 53.4 143.3 102 202.3l25.2 30.6c3.9 4.7 0.3 11.8-5.8 11.4l-111.5-8.2c-191.2-25.3-339.8-121.3-387.5-296l-12.7-46.6c-4.1-15.2 12.3-27.5 25.7-19.4z"/>
				</g>
			</g>
			<g id="&lt;Group&gt;">
				<g id="&lt;Group&gt;">
					<path id="&lt;Path&gt;" class="s2" d="m1418.3 585.2h366.9c20.8 0 36.7 16.9 36.7 37.7v106.2c0 20.8-15.9 37.6-36.7 37.6-0.2 0-5.7 0-13.2 0v70.9l-48.3-70.9c-70.2 0-305.4 0-305.4 0-20.8 0-38.6-16.8-38.6-37.6v-106.2c0-20.8 17.8-37.7 38.6-37.7z"/>
					<path id="&lt;Compound Path&gt;" class="s1" d="m1772 839.8c-0.8 0-1.5-0.3-1.9-1l-47.6-69.9h-304.2c-22.1 0-40.8-18.2-40.8-39.8v-106.2c0-21.6 18.7-39.9 40.8-39.9h366.9c21.8 0 38.9 17.5 38.9 39.9v106.2c0 22.3-17.1 39.8-38.9 39.8h-11v68.7c0 1-0.6 1.8-1.6 2.1q-0.3 0.1-0.6 0.1zm-353.7-252.3c-19.7 0-36.3 16.2-36.3 35.4v106.2c0 19.2 16.6 35.3 36.3 35.3h305.4c0.7 0 1.4 0.4 1.8 1l44.2 64.9v-63.6c0-1.3 1-2.3 2.3-2.3h13.2c19.3 0 34.5-15.5 34.5-35.3v-106.2c0-19.9-15.2-35.4-34.5-35.4z"/>
				</g>
				<g id="&lt;Group&gt;">
					<path id="&lt;Path&gt;" class="s1" d="m1556.1 702.3q-0.5 0-0.9-0.2l-50.6-22.9c-0.8-0.4-1.3-1.2-1.3-2.1 0-0.8 0.5-1.6 1.3-2l50.6-23.1c1.1-0.5 2.4 0 2.9 1.1 0.5 1.2 0 2.5-1.1 3l-46.1 21 46.1 20.9c1.1 0.5 1.6 1.8 1.1 3-0.4 0.8-1.2 1.3-2 1.3z"/>
					<path id="&lt;Path&gt;" class="s1" d="m1628.5 702.3c-0.9 0-1.7-0.5-2.1-1.3-0.5-1.2 0-2.5 1.2-3l46-20.9-46-21c-1.2-0.5-1.7-1.8-1.1-3 0.5-1.1 1.8-1.6 2.9-1.1l50.5 23.1c0.8 0.4 1.3 1.2 1.3 2 0 0.9-0.5 1.7-1.3 2.1l-50.5 22.9q-0.5 0.2-0.9 0.2z"/>
					<path id="&lt;Path&gt;" class="s1" d="m1571.3 729.2q-0.4 0-0.8-0.2c-1.2-0.4-1.8-1.7-1.3-2.8l39.3-103c0.5-1.1 1.8-1.7 2.9-1.3 1.2 0.5 1.7 1.8 1.3 2.9l-39.3 102.9c-0.4 0.9-1.2 1.5-2.1 1.5z"/>
				</g>
			</g>
			<g id="&lt;Group&gt;">
				<g id="&lt;Group&gt;">
					<path id="&lt;Path&gt;" class="s1" d="m1499.1 1970.5c-0.9 0-1.7-0.5-2.1-1.3-0.5-1.2 0-2.5 1.2-3 115.1-51 219.4-133.6 301.8-238.8 0.8-1 2.2-1.2 3.1-0.4 1 0.7 1.2 2.1 0.4 3.1-82.8 105.9-187.8 188.9-303.5 240.2q-0.5 0.2-0.9 0.2z"/>
					<path id="&lt;Path&gt;" class="s1" d="m1488 2029.3c-0.9 0-1.7-0.6-2-1.5-0.5-1.1 0.1-2.4 1.2-2.8 110.7-43 209.9-111.1 294.9-202.4 0.8-0.9 2.2-1 3.1-0.2 0.9 0.9 1 2.3 0.1 3.2-85.4 91.8-185.1 160.3-296.5 203.5q-0.4 0.2-0.8 0.2z"/>
				</g>
				<g id="&lt;Group&gt;">
					<path id="&lt;Path&gt;" class="s1" d="m1000.2 410.5c-1 0-1.9-0.7-2.1-1.7-0.3-1.2 0.4-2.4 1.6-2.7 115.3-26.5 229.4-28.3 339.3-5.3 1.2 0.3 2 1.5 1.7 2.7-0.2 1.2-1.4 2-2.6 1.7-109.3-22.9-222.8-21.1-337.4 5.3q-0.2 0-0.5 0z"/>
					<path id="&lt;Path&gt;" class="s1" d="m1381.8 364q-0.3 0-0.5-0.1c-94.2-24.4-192.7-30.6-293-18.3-1.2 0.1-2.3-0.7-2.4-2-0.2-1.2 0.7-2.3 1.9-2.5 100.8-12.3 199.9-6.1 294.6 18.5 1.2 0.3 1.9 1.5 1.6 2.7-0.3 1-1.2 1.7-2.2 1.7z"/>
				</g>
				<path id="&lt;Path&gt;" class="s1" d="m1430.1 1975.3c0-8.3 6.7-14.9 14.9-14.9 8.3 0 14.9 6.6 14.9 14.9 0 8.2-6.6 14.9-14.9 14.9-8.2 0-14.9-6.7-14.9-14.9z"/>
				<g id="&lt;Group&gt;">
					<path id="&lt;Path&gt;" class="s1" d="m407 1104.1c-0.5 0-1.1-0.2-1.5-0.6-0.9-0.9-0.9-2.3-0.1-3.2l8.2-8.6c0.9-0.9 2.3-0.9 3.2 0 0.9 0.8 0.9 2.2 0 3.1l-8.2 8.6c-0.4 0.4-1 0.7-1.6 0.7z"/>
					<path id="&lt;Path&gt;" class="s1" d="m378.3 1134.1c-0.6 0-1.1-0.2-1.5-0.7-0.9-0.8-1-2.2-0.1-3.1l8.2-8.6c0.9-0.9 2.3-0.9 3.2 0 0.8 0.8 0.9 2.2 0 3.1l-8.2 8.6c-0.4 0.4-1 0.7-1.6 0.7z"/>
					<path id="&lt;Path&gt;" class="s1" d="m386.4 1104.5c-0.6 0-1.2-0.2-1.6-0.6l-8.3-8.2c-0.9-0.9-0.9-2.3-0.1-3.2 0.9-0.8 2.3-0.8 3.2 0l8.3 8.2c0.9 0.9 0.9 2.3 0 3.2-0.4 0.4-1 0.6-1.5 0.6z"/>
					<path id="&lt;Path&gt;" class="s1" d="m415.5 1133.2c-0.6 0-1.1-0.2-1.6-0.6l-8.3-8.2c-0.9-0.9-0.9-2.3 0-3.2 0.9-0.8 2.3-0.8 3.1 0l8.4 8.2c0.9 0.9 0.9 2.3 0 3.2-0.4 0.4-1 0.6-1.6 0.6z"/>
				</g>
				<path id="&lt;Compound Path&gt;" class="s1" d="m1427 405.2c-2.6 0-5.3-0.5-7.9-1.5-5.6-2.1-10-6.4-12.4-12-4.9-11.3 0.2-24.7 11.4-29.7 5.4-2.4 11.3-2.6 16.8-0.4 5.6 2.1 10 6.4 12.4 12 4.9 11.4-0.2 24.7-11.3 29.7-2.9 1.3-5.9 1.9-9 1.9zm0-40.7c-2.4 0-4.8 0.6-7.1 1.6-8.9 4-13 14.7-9.1 23.9 2 4.4 5.5 7.9 9.9 9.6 4.4 1.7 9.2 1.6 13.4-0.4 9-4 13.1-14.7 9.1-23.8-1.9-4.5-5.4-7.9-9.9-9.7-2-0.8-4.1-1.2-6.3-1.2zm-8-0.5z"/>
			</g>
		</g>
	</g>
</svg>