<?xml version="1.0" encoding="UTF-8"?>
<!DOCTYPE svg PUBLIC "-//W3C//DTD SVG 1.1//EN" "http://www.w3.org/Graphics/SVG/1.1/DTD/svg11.dtd">
<!-- Creator: CorelDRAW -->
<svg xmlns="http://www.w3.org/2000/svg" xml:space="preserve" width="210mm" height="297mm" version="1.1" style="shape-rendering:geometricPrecision; text-rendering:geometricPrecision; image-rendering:optimizeQuality; fill-rule:evenodd; clip-rule:evenodd"
viewBox="0 0 21000 29700"
 xmlns:xlink="http://www.w3.org/1999/xlink"
 xmlns:xodm="http://www.corel.com/coreldraw/odm/2003">
 <defs>
  <style type="text/css">
   <![CDATA[
    .fil0 {fill:#652009}
    .fil4 {fill:#A01021}
    .fil2 {fill:url(#id0)}
    .fil3 {fill:url(#id1)}
    .fil1 {fill:url(#id2)}
   ]]>
  </style>
  <linearGradient id="id0" gradientUnits="userSpaceOnUse" x1="4600.43" y1="15378.46" x2="13832.67" y2="14415.53">
   <stop offset="0" style="stop-opacity:1; stop-color:#AB0D26"/>
   <stop offset="1" style="stop-opacity:1; stop-color:#EC2C54"/>
  </linearGradient>
  <linearGradient id="id1" gradientUnits="userSpaceOnUse" x1="12294.06" y1="19232.93" x2="11990.88" y2="13932.69">
   <stop offset="0" style="stop-opacity:1; stop-color:#652009"/>
   <stop offset="1" style="stop-opacity:1; stop-color:#EC2F55"/>
  </linearGradient>
  <linearGradient id="id2" gradientUnits="userSpaceOnUse" x1="5727.11" y1="14413.12" x2="16578.83" y2="15835.87">
   <stop offset="0" style="stop-opacity:1; stop-color:#AB0D26"/>
   <stop offset="1" style="stop-opacity:1; stop-color:#652009"/>
  </linearGradient>
 </defs>
 <g id="Layer_x0020_1">
  <metadata id="CorelCorpID_0Corel-Layer"/>
  <g id="_1207620003168">
   <g>
    <path class="fil0" d="M8838.65 11971.45c0,0 788.83,-222.93 1427.09,261.74 0,0 18.3,-370.87 -533.02,-689.96 0,0 1006.71,165.74 1047.92,1793.13 0,0 520.95,-2916.24 -2475.78,-3050.22 0,0 -1034.62,-55.02 -2062.25,764.33 0,0 -142.99,1993.42 1249.19,2809.7 0,0 179.95,-1573.2 1346.85,-1888.72z"/>
    <path class="fil1" d="M7504.15 13852.89c-1397.02,-810.21 -1261.53,-2802.42 -1261.53,-2802.42 -244.44,196.04 -488.3,441.71 -717.42,749.48 0,0 -995.13,974.04 -1155.61,2720.75 0,0 1225.97,3692.2 5920.59,832.33 0,0 1502.17,-1218.89 3426.5,-955.12 814.52,120.25 1699.77,479.4 2570.55,1299.92 -291.11,-526.82 -853.46,-1283.36 -1859.29,-1819.76 0,0 -1517.89,-810.89 -3222.36,45.34 0,0 -2228.95,1007.33 -3701.43,-70.52z"/>
    <path class="fil2" d="M10283.41 15333.17c-4688.88,2859.87 -5912.13,-830.51 -5912.13,-830.51 -2.6,28.44 -6.22,55.26 -8.37,84.1 0,0 -288.88,2022.12 1155.49,3514.63 0,0 1184.38,1405.86 3793.88,1309.57 0,0 1935.44,-105.93 3119.83,-1116.99 0,0 -1271.04,789.59 -2628.75,539.23 0,0 -694.53,-62.07 -1621.12,-613.18 -33.36,-19.85 -67.02,-40.32 -100.96,-61.45 0,0 53.76,22.61 149.99,55.97 339.77,-42.36 2365.34,-367.7 3544.91,-2206 0,0 656.69,-1178.17 2056.49,-1593 -38.82,-6.48 -77.49,-12.35 -115.99,-17.63 -1921.97,-263.78 -3433.27,935.26 -3433.27,935.26z"/>
    <path class="fil3" d="M13815.63 14412.74c-1406.82,414.83 -2057.62,1583.82 -2057.62,1583.82 -1185.48,1838.3 -3221.2,2162.99 -3562.68,2205.35 558.75,192.84 2542.07,745.54 3756.16,-629.82 472.24,-518.17 1103.47,-1224.96 1743.96,-1480.97 0,0 946.22,-850.33 2591.78,-393.29 -836.05,-790.4 -1689.88,-1155.27 -2471.6,-1285.09z"/>
    <path class="fil4" d="M13685.59 16095.12c596.21,-239.51 1200.44,-90.42 1692.48,968.26 0,0 614.26,1700.62 -1076.22,1172.67 0,0 979.76,644.7 1792,-81.24 0,0 842.71,-781.77 446.74,-1898.6 0,0 -70.69,-227.16 -253.7,-558.7 -1655.85,-510.32 -2603.19,380.72 -2601.3,397.61z"/>
   </g>
  </g>
 </g>
</svg>
