<?xml version="1.0" encoding="UTF-8" standalone="no" ?>
<!DOCTYPE svg PUBLIC "-//W3C//DTD SVG 1.1//EN" "http://www.w3.org/Graphics/SVG/1.1/DTD/svg11.dtd">
<svg xmlns="http://www.w3.org/2000/svg" xmlns:xlink="http://www.w3.org/1999/xlink" version="1.1" width="1080" height="1080" viewBox="53.77 11.18 1080 1080" xml:space="preserve">
<desc>Created with Fabric.js 5.2.4</desc>
<defs>
</defs>
<g transform="matrix(1 0 0 1 540 540)" id="980b5601-8b43-4e5a-b5e5-47d60ae1a5bc"  >
<rect style="stroke: none; stroke-width: 1; stroke-dasharray: none; stroke-linecap: butt; stroke-dashoffset: 0; stroke-linejoin: miter; stroke-miterlimit: 4; fill: rgb(255,255,255); fill-rule: nonzero; opacity: 1; visibility: hidden;" vector-effect="non-scaling-stroke"  x="-540" y="-540" rx="0" ry="0" width="1080" height="1080" />
</g>
<g transform="matrix(1 0 0 1 540 540)" id="341fe100-e05a-4347-8c7e-b751b7bf9dc6"  >
</g>
<g transform="matrix(1 0 0 1 466.63 506.18)"  >
<path style="stroke: none; stroke-width: 1; stroke-dasharray: none; stroke-linecap: butt; stroke-dashoffset: 0; stroke-linejoin: miter; stroke-miterlimit: 4; fill: rgb(255,182,182); fill-rule: nonzero; opacity: 1;" vector-effect="non-scaling-stroke"  transform=" translate(-526.62, -416.18)" d="M 527.68913 460.73774 C 529.7367772173947 458.7004650737418 530.7768645301891 455.8608446247723 530.5295234733618 452.98296855835247 C 530.2821824165345 450.10509249193257 528.7728207203802 447.4845862082875 526.4075799999999 445.82658 L 542.3396299999999 368.71993999999995 L 525.1507899999999 374.14257 L 512.3325399999999 448.73715 C 509.7539560437427 452.9885494225195 510.7626926586676 458.49667947138033 514.6805616614051 461.558344826486 C 518.5984306641427 464.6200101815917 524.187058489254 464.2674690834976 527.6891299999999 460.73774 Z" stroke-linecap="round" />
</g>
<g transform="matrix(1 0 0 1 483.99 425.91)"  >
<path style="stroke: none; stroke-width: 1; stroke-dasharray: none; stroke-linecap: butt; stroke-dashoffset: 0; stroke-linejoin: miter; stroke-miterlimit: 4; fill: rgb(171,13,38); fill-rule: nonzero; opacity: 1;" vector-effect="non-scaling-stroke"  transform=" translate(-543.18, -335.91)" d="M 564.51521 254.62848 L 553.86758 246.59109 C 553.86758 246.59109 544.4747 245.92593000000002 542.81115 262.86486 C 541.1476 279.80379000000005 530.73168 344.815 530.73168 344.815 L 514.43868 420.27787 L 536.9925999999999 425.22834 L 554.4436 343.79058 L 571.91248 287.60663999999997 Z" stroke-linecap="round" />
</g>
<g transform="matrix(1 0 0 1 490.58 439.06)"  >
<path style="stroke: none; stroke-width: 1; stroke-dasharray: none; stroke-linecap: butt; stroke-dashoffset: 0; stroke-linejoin: miter; stroke-miterlimit: 4; fill: rgb(101,32,9); fill-rule: nonzero; opacity: 1;" vector-effect="non-scaling-stroke"  transform=" translate(-550.58, -349.06)" d="M 556.4035 394.26194 L 505.32845000000003 354.54845 C 503.67203284315457 353.25749253269737 503.37317186043236 350.86934245171284 504.66038000000003 349.21001 L 539.41138 304.51716 C 540.7023542397817 302.860772980751 543.0904907676393 302.5619438888832 544.7498 303.84916 L 595.8248000000001 343.56264 C 597.4812127653919 344.85359011586297 597.7800780425187 347.24172981877143 596.4928800000001 348.90106 L 561.7418800000002 393.59391999999997 C 560.4509145818913 395.2502878835379 558.0628078402157 395.54912443424695 556.4035 394.26194 Z" stroke-linecap="round" />
</g>
<g transform="matrix(1 0 0 1 490.98 439.06)"  >
<path style="stroke: none; stroke-width: 1; stroke-dasharray: none; stroke-linecap: butt; stroke-dashoffset: 0; stroke-linejoin: miter; stroke-miterlimit: 4; fill: rgb(255,255,255); fill-rule: nonzero; opacity: 1;" vector-effect="non-scaling-stroke"  transform=" translate(-550.58, -349.06)" d="M 556.12277 390.1524 L 509.38042999999993 353.80782 C 507.9097153544937 352.66159380078244 507.6443607388303 350.541181512623 508.78725999999995 349.06788 L 540.2906 308.5518 C 541.4368291399295 307.08109053094336 543.5572369129676 306.81573648031554 545.0305400000001 307.95863 L 591.7728800000001 344.30321000000004 C 593.2435894690567 345.44943913992955 593.5089435196845 347.5698469129675 592.3660500000001 349.04315 L 560.8627100000001 389.55923 C 559.7164808600706 391.0299394690567 557.5960730870326 391.2952935196846 556.12277 390.1524 Z" stroke-linecap="round" />
</g>
<g transform="matrix(1 0 0 1 463.97 431.89)"  >
<path style="stroke: none; stroke-width: 1; stroke-dasharray: none; stroke-linecap: butt; stroke-dashoffset: 0; stroke-linejoin: miter; stroke-miterlimit: 4; fill: rgb(228,228,228); fill-rule: nonzero; opacity: 1;" vector-effect="non-scaling-stroke"  transform=" translate(-523.97, -341.89)" d="M 515.50831 352.77719 C 515.1406663056209 352.4906417784329 515.07435915703 351.96056931611173 515.36009 351.59229 L 531.2526 331.15310999999997 C 531.4377725415774 330.91496033042307 531.7359303623634 330.7936893357904 532.0347602969085 330.8349786260913 C 532.3335902314536 330.8762679163922 532.5876929039407 331.0738446662136 532.7013502969085 331.3532836260913 C 532.8150076898763 331.6327225859691 532.7709525415773 331.95157033042307 532.58578 332.18971999999997 L 516.69326 352.6289 C 516.4067088139292 352.9965619516606 515.8766269547278 353.0628987919501 515.50831 352.77719 Z" stroke-linecap="round" />
</g>
<g transform="matrix(1 0 0 1 466.61 433.93)"  >
<path style="stroke: none; stroke-width: 1; stroke-dasharray: none; stroke-linecap: butt; stroke-dashoffset: 0; stroke-linejoin: miter; stroke-miterlimit: 4; fill: rgb(228,228,228); fill-rule: nonzero; opacity: 1;" vector-effect="non-scaling-stroke"  transform=" translate(-526.61, -343.94)" d="M 518.14234 354.82529 C 517.7746512592198 354.5387323852107 517.708312999481 354.0086168157827 517.99405 353.64029 L 533.88657 333.20110999999997 C 534.1728357543798 332.83294594006776 534.7033559400678 332.76655424562017 535.07152 333.05281999999994 C 535.4396840599322 333.3390857543797 535.5060757543798 333.86960594006774 535.21981 334.23776999999995 L 519.32729 354.677 C 519.04073587346 355.04465677554305 518.5106585289658 355.1109930508416 518.14234 354.82529 Z" stroke-linecap="round" />
</g>
<g transform="matrix(1 0 0 1 473.74 430.19)"  >
<path style="stroke: none; stroke-width: 1; stroke-dasharray: none; stroke-linecap: butt; stroke-dashoffset: 0; stroke-linejoin: miter; stroke-miterlimit: 4; fill: rgb(228,228,228); fill-rule: nonzero; opacity: 1;" vector-effect="non-scaling-stroke"  transform=" translate(-533.74, -340.2)" d="M 529.77986 345.29409 C 529.4121712592198 345.0075323852107 529.345832999481 344.4774168157827 529.63157 344.10909 L 536.52057 335.2492 C 536.7055625630968 335.0104669122199 537.003971360358 334.8887099791836 537.3031712124427 334.9298825928322 C 537.6023710645275 334.97105520648086 537.8568014406095 335.1688878244993 537.9704354574369 335.44871463847863 C 538.0840694742642 335.728541452458 538.0396035600253 336.04775195274925 537.85382 336.28587 L 530.96482 345.14576 C 530.6782772375904 345.5134360417761 530.1481906606498 345.5797908064581 529.77986 345.29409 Z" stroke-linecap="round" />
</g>
<g transform="matrix(1 0 0 1 486.4 435.88)"  >
<path style="stroke: none; stroke-width: 1; stroke-dasharray: none; stroke-linecap: butt; stroke-dashoffset: 0; stroke-linejoin: miter; stroke-miterlimit: 4; fill: rgb(228,228,228); fill-rule: nonzero; opacity: 1;" vector-effect="non-scaling-stroke"  transform=" translate(-546.39, -345.88)" d="M 533.33129 362.6806 C 532.96365148248 362.39404883778906 532.8973448987335 361.8639808909447 533.1830699999999 361.4957 L 558.2724099999999 329.22859 C 558.4575825415773 328.9904403304231 558.7557403623633 328.86916933579045 559.0545702969084 328.9104586260913 C 559.3534002314535 328.9517479163922 559.6075029039406 329.1493246662136 559.7211602969084 329.4287636260913 C 559.8348176898762 329.7082025859691 559.7907625415772 330.0270503304231 559.6055899999999 330.2652 L 534.5162499999999 362.53231 C 534.2296951756705 362.89997316837963 533.6996101864461 362.9663098405476 533.33129 362.6806 Z" stroke-linecap="round" />
</g>
<g transform="matrix(1 0 0 1 489.03 437.93)"  >
<path style="stroke: none; stroke-width: 1; stroke-dasharray: none; stroke-linecap: butt; stroke-dashoffset: 0; stroke-linejoin: miter; stroke-miterlimit: 4; fill: rgb(228,228,228); fill-rule: nonzero; opacity: 1;" vector-effect="non-scaling-stroke"  transform=" translate(-549.03, -347.93)" d="M 535.96532 364.7287 C 535.5976312592198 364.44214238521073 535.531292999481 363.9120268157827 535.81703 363.5437 L 560.90637 331.27659 C 561.1926385158035 330.9084259400678 561.7231609400678 330.84203648419646 562.0913250000001 331.12830499999995 C 562.4594890599323 331.4145735158035 562.5258785158036 331.9450959400678 562.2396100000001 332.31326 L 537.1502700000001 364.58037 C 536.8637279352309 364.94803964897187 536.333649003058 365.0143940166745 535.96532 364.7287 Z" stroke-linecap="round" />
</g>
<g transform="matrix(1 0 0 1 495.01 442.58)"  >
<path style="stroke: none; stroke-width: 1; stroke-dasharray: none; stroke-linecap: butt; stroke-dashoffset: 0; stroke-linejoin: miter; stroke-miterlimit: 4; fill: rgb(228,228,228); fill-rule: nonzero; opacity: 1;" vector-effect="non-scaling-stroke"  transform=" translate(-555.01, -352.58)" d="M 541.94445 369.37778 C 541.5768018709794 369.091231155591 541.5104903672901 368.5611551666792 541.79622 368.19286999999997 L 566.8855699999999 335.92575999999997 C 567.1718247086848 335.55761527003403 567.702320270034 335.49123029131516 568.0704649999999 335.77748499999996 C 568.4386097299658 336.0637397086848 568.5049947086848 336.59423527003406 568.2187399999999 336.96238 L 543.1294 369.22949 C 542.8428458734601 369.5971467755431 542.3127685289659 369.66348305084165 541.94445 369.37778 Z" stroke-linecap="round" />
</g>
<g transform="matrix(1 0 0 1 497.64 444.63)"  >
<path style="stroke: none; stroke-width: 1; stroke-dasharray: none; stroke-linecap: butt; stroke-dashoffset: 0; stroke-linejoin: miter; stroke-miterlimit: 4; fill: rgb(228,228,228); fill-rule: nonzero; opacity: 1;" vector-effect="non-scaling-stroke"  transform=" translate(-557.64, -354.63)" d="M 544.57847 371.42587 C 544.2107844774679 371.13930936964664 544.1444507409424 370.6091941971163 544.43019 370.24087 L 569.51953 337.97375999999997 C 569.8057985158035 337.60559594006776 570.3363209400678 337.5392064841964 570.7044850000001 337.8254749999999 C 571.0726490599322 338.1117435158035 571.1390385158036 338.6422659400678 570.8527700000001 339.01043 L 545.7634300000001 371.27754 C 545.4768842969462 371.6452108657422 544.9468022347086 371.7115650652862 544.57847 371.42587 Z" stroke-linecap="round" />
</g>
<g transform="matrix(1 0 0 1 503.62 449.28)"  >
<path style="stroke: none; stroke-width: 1; stroke-dasharray: none; stroke-linecap: butt; stroke-dashoffset: 0; stroke-linejoin: miter; stroke-miterlimit: 4; fill: rgb(228,228,228); fill-rule: nonzero; opacity: 1;" vector-effect="non-scaling-stroke"  transform=" translate(-563.62, -359.27)" d="M 550.5576 376.075 C 550.18996148248 375.788448837789 550.1236548987335 375.25838089094464 550.4093799999999 374.89009999999996 L 575.4987199999999 342.62298999999996 C 575.6838925415773 342.38484033042306 575.9820503623633 342.2635693357904 576.2808802969084 342.3048586260913 C 576.5797102314535 342.34614791639217 576.8338129039406 342.54372466621356 576.9474702969084 342.8231636260913 C 577.0611276898762 343.10260258596907 577.0170725415772 343.42145033042306 576.8318999999999 343.65959999999995 L 551.7425599999999 375.92670999999996 C 551.4560051756705 376.2943731683796 550.9259201864461 376.36070984054754 550.5576 376.075 Z" stroke-linecap="round" />
</g>
<g transform="matrix(1 0 0 1 506.26 451.33)"  >
<path style="stroke: none; stroke-width: 1; stroke-dasharray: none; stroke-linecap: butt; stroke-dashoffset: 0; stroke-linejoin: miter; stroke-miterlimit: 4; fill: rgb(228,228,228); fill-rule: nonzero; opacity: 1;" vector-effect="non-scaling-stroke"  transform=" translate(-566.25, -361.32)" d="M 553.19163 378.123 C 552.8239412592199 377.8364423852107 552.757602999481 377.3063268157827 553.0433400000001 376.938 L 578.13268 344.671 C 578.419468039133 344.3045611721635 578.9486519574265 344.23918528110397 579.315996790484 344.52481190374596 C 579.6833416235415 344.8104385263879 579.7503923439674 345.3394128427801 579.4659300000001 345.70766 L 554.3765900000001 377.97477 C 554.0900170835689 378.34241385910985 553.5599344750933 378.4087233928108 553.19163 378.123 Z" stroke-linecap="round" />
</g>
<g transform="matrix(1 0 0 1 451.26 505.25)"  >
<circle style="stroke: none; stroke-width: 1; stroke-dasharray: none; stroke-linecap: butt; stroke-dashoffset: 0; stroke-linejoin: miter; stroke-miterlimit: 4; fill: rgb(255,255,255); fill-rule: nonzero; opacity: 1;" vector-effect="non-scaling-stroke"  cx="0" cy="0" r="0.34668" />
</g>
<g transform="matrix(1 0 0 1 532.56 277.33)"  >
<path style="stroke: none; stroke-width: 1; stroke-dasharray: none; stroke-linecap: butt; stroke-dashoffset: 0; stroke-linejoin: miter; stroke-miterlimit: 4; fill: rgb(171,13,38); fill-rule: nonzero; opacity: 1;" vector-effect="non-scaling-stroke"  transform=" translate(-592.55, -187.33)" d="M 561.77832 176.70558 C 560.5588714671298 183.25733760186762 558.5592530886304 189.6394981093403 555.82217 195.71576 C 540.14886 228.87242999999998 584.7835 218.06507 600.73441 218.06507 C 618.1744100000001 218.06507 634.86085 227.23579999999998 632.31231 186.48716 C 631.22369 169.08115999999998 618.1744 154.90925 600.73441 154.90925 C 585.83774 154.90925 564.89327 161.53052 561.77832 176.70558 Z" stroke-linecap="round" />
</g>
<g transform="matrix(1 0 0 1 546.02 724.34)"  >
<polygon style="stroke: none; stroke-width: 1; stroke-dasharray: none; stroke-linecap: butt; stroke-dashoffset: 0; stroke-linejoin: miter; stroke-miterlimit: 4; fill: rgb(255,182,182); fill-rule: nonzero; opacity: 1;" vector-effect="non-scaling-stroke"  points="10.96,28.66 -3.89,28.66 -10.96,-28.66 10.96,-28.66 10.96,28.66 " />
</g>
<g transform="matrix(1 0 0 1 538.81 760.07)"  >
<path style="stroke: none; stroke-width: 1; stroke-dasharray: none; stroke-linecap: butt; stroke-dashoffset: 0; stroke-linejoin: miter; stroke-miterlimit: 4; fill: rgb(101,32,9); fill-rule: nonzero; opacity: 1;" vector-effect="non-scaling-stroke"  transform=" translate(-598.81, -670.07)" d="M 624.83334 688.73931 L 614.17746 688.73931 L 612.27546 678.6789 L 607.4040799999999 688.73931 L 579.14211 688.73931 C 576.3615529127616 688.7395206800236 573.9039456142253 686.9315034449135 573.0764676548433 684.2769266450234 C 572.2489896954613 681.6223498451333 573.2439386566164 678.7381105137028 575.53211 677.15831 L 598.10126 661.5712500000001 L 598.10126 651.40053 L 621.84007 652.81742 Z" stroke-linecap="round" />
</g>
<g transform="matrix(1 0 0 1 619.37 715.68)"  >
<polygon style="stroke: none; stroke-width: 1; stroke-dasharray: none; stroke-linecap: butt; stroke-dashoffset: 0; stroke-linejoin: miter; stroke-miterlimit: 4; fill: rgb(255,182,182); fill-rule: nonzero; opacity: 1;" vector-effect="non-scaling-stroke"  points="25.9,18.56 13.97,27.43 -25.9,-14.34 -8.3,-27.43 25.9,18.56 " />
</g>
<g transform="matrix(1 0 0 1 643.51 750.96)"  >
<path style="stroke: none; stroke-width: 1; stroke-dasharray: none; stroke-linecap: butt; stroke-dashoffset: 0; stroke-linejoin: miter; stroke-miterlimit: 4; fill: rgb(101,32,9); fill-rule: nonzero; opacity: 1;" vector-effect="non-scaling-stroke"  transform=" translate(-703.52, -660.96)" d="M 726.92339 660.22174 L 718.3725400000001 666.5802699999999 L 710.8430500000001 659.64222 L 712.93721 670.6220599999999 L 690.25832 687.4863899999999 C 688.0271883992472 689.1457189070101 684.9762429431979 689.1613521697964 682.728223907452 687.5249747510932 C 680.4802048717062 685.88859733239 679.5575167780762 682.9804777927964 680.45092 680.3473899999999 L 689.26057 654.3721499999999 L 683.1915700000001 646.21061 L 703.0863300000001 633.18228 Z" stroke-linecap="round" />
</g>
<g transform="matrix(1 0 0 1 543.6 462.63)"  >
<polygon style="stroke: none; stroke-width: 1; stroke-dasharray: none; stroke-linecap: butt; stroke-dashoffset: 0; stroke-linejoin: miter; stroke-miterlimit: 4; fill: rgb(255,182,182); fill-rule: nonzero; opacity: 1;" vector-effect="non-scaling-stroke"  points="-35.27,26.59 35.27,15.61 21.24,-26.59 -35.27,-26.59 -35.27,26.59 " />
</g>
<g transform="matrix(1 0 0 1 560.13 582.29)"  >
<path style="stroke: none; stroke-width: 1; stroke-dasharray: none; stroke-linecap: butt; stroke-dashoffset: 0; stroke-linejoin: miter; stroke-miterlimit: 4; fill: rgb(101,32,9); fill-rule: nonzero; opacity: 1;" vector-effect="non-scaling-stroke"  transform=" translate(-620.55, -491.76)" d="M 634.29015 367.29129 C 634.29015 367.29129 662.4827200000001 391.64836 649.47501 461.08429 L 633.59466 529.1199 L 676.86085 604.2358 L 654.86085 616.2358 L 601.54305 542.1306900000001 L 577.145 484.90063 L 564.23959 384.59926 Z" stroke-linecap="round" />
</g>
<g transform="matrix(1 0 0 1 546.04 647.47)"  >
<polygon style="stroke: none; stroke-width: 1; stroke-dasharray: none; stroke-linecap: butt; stroke-dashoffset: 0; stroke-linejoin: miter; stroke-miterlimit: 4; fill: rgb(101,32,9); fill-rule: nonzero; opacity: 1;" vector-effect="non-scaling-stroke"  points="-15.44,-56.26 -17.14,-29.99 -12.17,47.77 12.47,56.26 17.14,-23.42 -15.44,-56.26 " />
</g>
<g transform="matrix(1 0 0 1 538.46 396.52)"  >
<path style="stroke: none; stroke-width: 1; stroke-dasharray: none; stroke-linecap: butt; stroke-dashoffset: 0; stroke-linejoin: miter; stroke-miterlimit: 4; fill: rgb(171,13,38); fill-rule: nonzero; opacity: 1;" vector-effect="non-scaling-stroke"  transform=" translate(-598.46, -306.52)" d="M 583.01607 226.805 L 610.28107 227.86868 L 621.14735 245.90624000000003 L 645.9391899999999 250.74604000000002 L 631.13917 325.619 L 633.86085 368.23585 L 609.17485 368.0853 C 591.3840701762015 367.97680187650764 574.1795007096118 374.44018835331394 560.86085 386.23582999999996 L 560.86085 386.23583 L 561.59934 330.91588 L 550.98112 289.62018 L 553.36757 246.31901 L 573.31149 243.82601 Z" stroke-linecap="round" />
</g>
<g transform="matrix(1 0 0 1 354.25 792.75)"  >
<polygon style="stroke: none; stroke-width: 1; stroke-dasharray: none; stroke-linecap: butt; stroke-dashoffset: 0; stroke-linejoin: miter; stroke-miterlimit: 4; fill: rgb(255,182,182); fill-rule: nonzero; opacity: 1;" vector-effect="non-scaling-stroke"  points="-14.38,22.25 -2.12,25.01 14.38,-20.93 -3.71,-25.01 -14.38,22.25 " />
</g>
<g transform="matrix(1 0 0 1.06 538.12 283.94)"  >
<circle style="stroke: none; stroke-width: 1; stroke-dasharray: none; stroke-linecap: butt; stroke-dashoffset: 0; stroke-linejoin: miter; stroke-miterlimit: 4; fill: rgb(255,182,182); fill-rule: nonzero; opacity: 1;" vector-effect="non-scaling-stroke"  cx="0" cy="0" r="25.66061" />
</g>
<g transform="matrix(1 0 0 1 300.46 798.69)"  >
<polygon style="stroke: none; stroke-width: 1; stroke-dasharray: none; stroke-linecap: butt; stroke-dashoffset: 0; stroke-linejoin: miter; stroke-miterlimit: 4; fill: rgb(255,182,182); fill-rule: nonzero; opacity: 1;" vector-effect="non-scaling-stroke"  points="-9.27,24.23 3.29,24.22 9.27,-24.22 -9.27,-24.22 -9.27,24.23 " />
</g>
<g transform="matrix(1 0 0 1 540 268.72)"  >
<path style="stroke: none; stroke-width: 1; stroke-dasharray: none; stroke-linecap: butt; stroke-dashoffset: 0; stroke-linejoin: miter; stroke-miterlimit: 4; fill: rgb(171,13,38); fill-rule: nonzero; opacity: 1;" vector-effect="non-scaling-stroke"  transform=" translate(-596, -178.73)" d="M 580.69521 166.23918 C 589.8536512474752 160.65587375352726 601.3262606636271 160.50462620997533 610.6287068664693 165.84455592567224 C 619.9311530693116 171.18448564136912 625.5862600103144 181.1676418617649 625.3836 191.89188000000001 C 612.30819 195.17473 598.5716 197.68699 584.62767 192.67710000000002 L 581.33467 184.61782000000002 L 579.39329 192.68307000000001 C 575.14688 194.41874 570.88946 195.8873 566.63207 192.66631 C 566.2782968820106 181.98125558966063 571.6351900709359 171.91470482647088 580.69521 166.23918 Z" stroke-linecap="round" />
</g>
<g transform="matrix(1 0 0 1 336.11 677.02)"  >
<path style="stroke: none; stroke-width: 1; stroke-dasharray: none; stroke-linecap: butt; stroke-dashoffset: 0; stroke-linejoin: miter; stroke-miterlimit: 4; fill: rgb(101,32,9); fill-rule: nonzero; opacity: 1;" vector-effect="non-scaling-stroke"  transform=" translate(-396.2, -588.36)" d="M 328.20043 483.69941 L 339.559 610.95923 C 339.559 610.95923 335.30308 687.36014 349.03614000000005 714.24508 L 368.95286000000004 714.24508 L 378.814 603.982 L 380.05229 529.97275 L 422.75167000000005 592.41159 L 395.55512 712.44236 L 420.0679 714.63373 L 464.2006 584.3724500000001 L 415.71519 462.0877 Z" stroke-linecap="round" />
</g>
<g transform="matrix(1 0 0 1 599.14 524.78)"  >
<path style="stroke: none; stroke-width: 1; stroke-dasharray: none; stroke-linecap: butt; stroke-dashoffset: 0; stroke-linejoin: miter; stroke-miterlimit: 4; fill: rgb(171,13,38); fill-rule: nonzero; opacity: 1;" vector-effect="non-scaling-stroke"  transform=" translate(-660.1, -434.54)" d="M 641.1932 419.97065 L 644.65231 451.36318 C 645.1468912410622 452.97111376061366 646.6324213124996 454.0683906615588 648.3147 454.06838 L 664.25987 454.06838 C 665.9422862886662 454.0685285158656 667.4280080119767 452.97123289341835 667.9226699999999 451.36318 L 670.78775 427.30234 C 673.0584187159103 428.4156310457408 675.7881753011741 427.93498415507327 677.5420222345704 426.1130691449378 C 679.2958691679667 424.29115413480235 679.6722783911125 421.54508265994417 678.4733764726935 419.318428766778 C 677.2744745542745 417.0917748736119 674.7747397000726 415.8943116771057 672.28825 416.35553000000004 C 671.56472048997 415.50079293595917 670.5008299162099 415.0089676389852 669.3809799999999 415.01153000000005 L 644.856 415.01153000000005 C 643.6399061409811 415.0116031135634 642.4960215035918 415.58884351857057 641.7735225496999 416.56704571694996 C 641.0510235958081 417.54524791532936 640.8356701795917 418.80830035088064 641.1932 419.97065 Z M 671.2884600000001 425.67524 L 673.0433700000001 419.97065 C 673.2465791601478 419.3123690792915 673.2666302842006 418.61116744280685 673.1013700000001 417.94235 C 673.1764300000001 417.93834999999996 673.2470300000001 417.91999 673.3229100000001 417.91999 C 675.617653135547 417.91999 677.4779100000001 419.78024686445303 677.4779100000001 422.07498999999996 C 677.4779100000001 424.36973313554694 675.617653135547 426.22999 673.3229100000001 426.22999 C 672.6080074636128 426.22549919681114 671.9066888316593 426.0342649511545 671.28846 425.67524 Z" stroke-linecap="round" />
</g>
<g transform="matrix(1 0 0 1 607.25 499.51)"  >
<path style="stroke: none; stroke-width: 1; stroke-dasharray: none; stroke-linecap: butt; stroke-dashoffset: 0; stroke-linejoin: miter; stroke-miterlimit: 4; fill: rgb(255,182,182); fill-rule: nonzero; opacity: 1;" vector-effect="non-scaling-stroke"  transform=" translate(-666.55, -409.51)" d="M 665.23736 454.09 C 663.20007830355 452.04235306925847 662.1744234856154 449.19748148384923 662.4363828306506 446.3208946234861 C 662.6983421756858 443.4443077631229 664.2210060528399 440.8315014441947 666.59465 439.18553999999995 L 651.05459 361.999 L 668.21566 367.50889 L 680.65472 442.16764 C 683.2115685455313 446.4320809390049 682.1748211221113 451.93493017586223 678.2414857064796 454.97660792263025 C 674.3081502908478 458.01828566939827 668.7214594932645 457.6373908338497 665.23736 454.09 Z" stroke-linecap="round" />
</g>
<g transform="matrix(1 0 0 1 596.63 430.06)"  >
<path style="stroke: none; stroke-width: 1; stroke-dasharray: none; stroke-linecap: butt; stroke-dashoffset: 0; stroke-linejoin: miter; stroke-miterlimit: 4; fill: rgb(171,13,38); fill-rule: nonzero; opacity: 1;" vector-effect="non-scaling-stroke"  transform=" translate(-656.63, -340.06)" d="M 635.29161 258.78347 L 645.93923 250.74608000000003 C 645.93923 250.74608000000003 655.3321199999999 250.08092000000005 656.9956599999999 267.01985 C 658.6591999999999 283.95878 669.07514 348.97 669.07514 348.97 L 685.36814 424.43286 L 662.81421 429.38334000000003 L 645.36321 347.94558000000006 L 627.8943399999999 291.7616300000001 Z" stroke-linecap="round" />
</g>
<g transform="matrix(1 0 0 1 483.4 413.02)"  >
<circle style="stroke: none; stroke-width: 1; stroke-dasharray: none; stroke-linecap: butt; stroke-dashoffset: 0; stroke-linejoin: miter; stroke-miterlimit: 4; fill: rgb(171,13,38); fill-rule: nonzero; opacity: 1;" vector-effect="non-scaling-stroke"  cx="0" cy="0" r="6.0273" />
</g>
<g transform="matrix(1 0 0 1 308.24 824.15)"  >
<path style="stroke: none; stroke-width: 1; stroke-dasharray: none; stroke-linecap: butt; stroke-dashoffset: 0; stroke-linejoin: miter; stroke-miterlimit: 4; fill: rgb(101,32,9); fill-rule: nonzero; opacity: 1;" vector-effect="non-scaling-stroke"  transform=" translate(-368.24, -734.15)" d="M 347.99177 728.81386 L 351.52731 728.81372 L 365.33062 723.20024 L 372.72878000000003 728.81286 L 372.72978 728.81286 C 381.4359136562024 728.8133293821445 388.4935446409681 735.8708663508229 388.49413 744.577 L 388.49413 745.08928 L 347.99252 745.09078 Z" stroke-linecap="round" />
</g>
<g transform="matrix(1 0 0 1 354.08 821.87)"  >
<path style="stroke: none; stroke-width: 1; stroke-dasharray: none; stroke-linecap: butt; stroke-dashoffset: 0; stroke-linejoin: miter; stroke-miterlimit: 4; fill: rgb(101,32,9); fill-rule: nonzero; opacity: 1;" vector-effect="non-scaling-stroke"  transform=" translate(-414.07, -731.86)" d="M 397.6499 720.29336 L 401.09863 721.07202 L 415.79942 718.63702 L 421.77952 725.74144 L 421.78051999999997 725.74166 C 430.2726926638603 727.6598782695313 435.60235076709426 736.0986830509269 433.68516999999997 744.59109 L 433.57232999999997 745.09079 L 394.06523 736.1706399999999 Z" stroke-linecap="round" />
</g>
<g transform="matrix(1 0 0 1 280.09 341.74)"  >
<circle style="stroke: none; stroke-width: 1; stroke-dasharray: none; stroke-linecap: butt; stroke-dashoffset: 0; stroke-linejoin: miter; stroke-miterlimit: 4; fill: rgb(255,184,184); fill-rule: nonzero; opacity: 1;" vector-effect="non-scaling-stroke"  cx="0" cy="0" r="29.29298" />
</g>
<g transform="matrix(1 0 0 1 298.4 478.84)"  >
<path style="stroke: none; stroke-width: 1; stroke-dasharray: none; stroke-linecap: butt; stroke-dashoffset: 0; stroke-linejoin: miter; stroke-miterlimit: 4; fill: rgb(171,13,38); fill-rule: nonzero; opacity: 1;" vector-effect="non-scaling-stroke"  transform=" translate(-358.4, -388.83)" d="M 391.59121 308.95558 L 367.55962999999997 298.64433 L 355.86085 286.2358 L 326.63570000000004 290.94915 L 318.88162000000005 304.24445 L 293.78047000000004 327.58475999999996 L 323.18935000000005 460.55809 L 322.29913000000005 489.60071 C 322.29913000000005 489.60071 341.12162000000006 498.07439999999997 422.75163000000003 478.56451 C 423.7305 478.33056 421.68138000000005 477.306 421.68138000000005 477.306 Z" stroke-linecap="round" />
</g>
<g transform="matrix(1 0 0 1 249.21 357.95)"  >
<path style="stroke: none; stroke-width: 1; stroke-dasharray: none; stroke-linecap: butt; stroke-dashoffset: 0; stroke-linejoin: miter; stroke-miterlimit: 4; fill: rgb(47,46,65); fill-rule: nonzero; opacity: 1;" vector-effect="non-scaling-stroke"  transform=" translate(-309.21, -267.95)" d="M 309.63622 268.36932 Q 309.33006 267.95153 309.02988999999997 267.52667 C 308.94933999999995 267.69676000000004 308.88530999999995 267.87248 308.79326 268.03857000000005 Z" stroke-linecap="round" />
</g>
<g transform="matrix(1 0 0 1 279.69 331.89)"  >
<path style="stroke: none; stroke-width: 1; stroke-dasharray: none; stroke-linecap: butt; stroke-dashoffset: 0; stroke-linejoin: miter; stroke-miterlimit: 4; fill: rgb(171,13,38); fill-rule: nonzero; opacity: 1;" vector-effect="non-scaling-stroke"  transform=" translate(-339.69, -241.88)" d="M 369.23525 230.32123 C 367.2771727836908 226.0556941495076 363.7859717119702 222.68295311022518 359.45541000000003 220.87323 C 355.1630500663099 219.14194299144685 350.3659352876385 219.14613815416027 346.07661 220.88493 C 342.204 218.43822 337.90115000000003 216.49853 333.36967000000004 216.25827999999998 C 328.83819000000005 216.01802999999998 324.04709 217.69919 321.25456 221.39982999999998 C 320.63094940447496 222.37668879130513 319.92267327275755 223.29683707870234 319.13791000000003 224.14964999999998 C 316.89318000000003 226.22840999999997 313.48182 225.92855999999998 310.49819 225.50350999999998 Q 312.50553 227.22391999999996 314.51388000000003 228.94432999999998 Q 312.08406 229.57908999999998 309.65373000000005 230.21389999999997 Q 312.48953000000006 231.93373999999997 315.32482000000005 233.65358999999998 C 309.83682000000005 236.94759 307.34247000000005 244.13717999999997 308.00133000000005 250.66687 C 308.62467000000004 256.84893999999997 311.60933000000006 262.50202 315.17724000000004 267.52664 C 316.60052 264.52312 316.29385 260.92922999999996 316.27034000000003 257.54643999999996 C 316.24583 253.97217999999995 316.87817 249.91343999999995 319.74224000000004 247.91586999999996 C 321.67429000000004 246.56838999999997 324.15865 246.50822999999997 326.48842 246.52097999999995 C 338.2402863559001 246.58548179848793 349.9789724140387 247.31833189820904 361.6476099999998 248.7159799999999 C 363.2309859680928 248.78449407782324 364.7747560140625 249.23224452641492 366.14907000000005 250.02156999999994 C 368.72948 251.78196999999994 369.2322500000001 255.41488999999993 369.49139 258.6020699999999 C 370.8547035001524 253.33954542215827 371.52192339566415 247.92094351670485 371.47598000000005 242.48488999999992 C 371.59073426179623 238.3180338963944 370.82727992086757 234.17367066272504 369.23525 230.32123 Z" stroke-linecap="round" />
</g>
<g transform="matrix(1 0 0 1 318.36 616.81)"  >
<circle style="stroke: none; stroke-width: 1; stroke-dasharray: none; stroke-linecap: butt; stroke-dashoffset: 0; stroke-linejoin: miter; stroke-miterlimit: 4; fill: rgb(255,255,255); fill-rule: nonzero; opacity: 1;" vector-effect="non-scaling-stroke"  cx="0" cy="0" r="46.10517" />
</g>
<g transform="matrix(1 0 0 1 318.73 616.41)"  >
<path style="stroke: none; stroke-width: 1; stroke-dasharray: none; stroke-linecap: butt; stroke-dashoffset: 0; stroke-linejoin: miter; stroke-miterlimit: 4; fill: rgb(171,13,38); fill-rule: nonzero; opacity: 1;" vector-effect="non-scaling-stroke"  transform=" translate(-378.36, -526.79)" d="M 378.35518 479.67439 C 375.98522328648704 479.6746789320369 373.61862798488835 479.8527754354619 371.27532 480.20718 C 370.07666 480.38133999999997 368.90902 480.60671 367.75089 480.88336 C 350.4046911949877 484.8817536220009 336.79395334482246 498.3167641157734 332.5704960361171 515.609542171974 C 328.34703872741176 532.9023202281745 334.23231852937374 551.0988906041084 347.78249000000005 562.64318 C 348.57142000000005 563.3091800000001 349.37036000000006 563.95465 350.20031000000006 564.5693600000001 C 366.6239735598939 576.8146804122521 389.07788624126215 577.0450514139781 405.74933341936594 565.139277784558 C 422.42078059746973 553.2335041551379 429.4892808886123 531.9199505064602 423.2361872155991 512.4114032452255 C 416.98309354258595 492.90285598399095 398.84138456126135 479.66995529147937 378.3551800000001 479.6743600000001 Z M 378.35518 571.88473 C 368.76957720799084 571.8950362574568 359.43316254786083 568.8319636322117 351.71664000000004 563.14521 C 350.87664000000007 562.5305000000001 350.06724 561.8952800000001 349.27831000000003 561.21909 C 336.06912298517824 550.0763036983168 330.39747522060077 532.3598224814284 334.679674812646 515.617448850088 C 338.9618744046913 498.8750752187475 352.44325656569356 486.05736754136603 369.38031 482.62509000000006 C 370.52744 482.38946000000004 371.67506000000003 482.20498000000003 372.8432 482.0615900000001 C 374.67178542447255 481.835137314985 376.5126463654345 481.72221425595774 378.3552 481.7234700000001 C 403.2525334160696 481.7234700000001 423.43581 501.9067465839305 423.43581000000006 526.8040800000001 C 423.43581000000006 551.7014134160696 403.2525334160696 571.8846900000001 378.3552 571.8846900000001 Z" stroke-linecap="round" />
</g>
<g transform="matrix(-1 0 0 -1 318.36 604.5)"  >
<rect style="stroke: none; stroke-width: 1; stroke-dasharray: none; stroke-linecap: butt; stroke-dashoffset: 0; stroke-linejoin: miter; stroke-miterlimit: 4; fill: rgb(171,13,38); fill-rule: nonzero; opacity: 1;" vector-effect="non-scaling-stroke"  x="-25.615" y="-3.075" rx="3" ry="3" width="51.23" height="6.15" />
</g>
<g transform="matrix(-1 0 0 -1 318.36 616.8)"  >
<rect style="stroke: none; stroke-width: 1; stroke-dasharray: none; stroke-linecap: butt; stroke-dashoffset: 0; stroke-linejoin: miter; stroke-miterlimit: 4; fill: rgb(171,13,38); fill-rule: nonzero; opacity: 1;" vector-effect="non-scaling-stroke"  x="-25.615" y="-3.075" rx="3" ry="3" width="51.23" height="6.15" />
</g>
<g transform="matrix(-1 0 0 -1 318.36 629.09)"  >
<rect style="stroke: none; stroke-width: 1; stroke-dasharray: none; stroke-linecap: butt; stroke-dashoffset: 0; stroke-linejoin: miter; stroke-miterlimit: 4; fill: rgb(171,13,38); fill-rule: nonzero; opacity: 1;" vector-effect="non-scaling-stroke"  x="-25.615" y="-3.075" rx="3" ry="3" width="51.23" height="6.15" />
</g>
<g transform="matrix(1 0 0 1 824.45 795.95)"  >
<polygon style="stroke: none; stroke-width: 1; stroke-dasharray: none; stroke-linecap: butt; stroke-dashoffset: 0; stroke-linejoin: miter; stroke-miterlimit: 4; fill: rgb(255,182,182); fill-rule: nonzero; opacity: 1;" vector-effect="non-scaling-stroke"  points="9.72,25.4 -3.45,25.4 -9.72,-25.4 9.72,-25.4 9.72,25.4 " />
</g>
<g transform="matrix(1 0 0 1 762.14 795.95)"  >
<polygon style="stroke: none; stroke-width: 1; stroke-dasharray: none; stroke-linecap: butt; stroke-dashoffset: 0; stroke-linejoin: miter; stroke-miterlimit: 4; fill: rgb(255,182,182); fill-rule: nonzero; opacity: 1;" vector-effect="non-scaling-stroke"  points="9.72,25.4 -3.45,25.4 -9.72,-25.4 9.72,-25.4 9.72,25.4 " />
</g>
<g transform="matrix(1 0 0 1 752.07 824.15)"  >
<path style="stroke: none; stroke-width: 1; stroke-dasharray: none; stroke-linecap: butt; stroke-dashoffset: 0; stroke-linejoin: miter; stroke-miterlimit: 4; fill: rgb(101,32,9); fill-rule: nonzero; opacity: 1;" vector-effect="non-scaling-stroke"  transform=" translate(-812.07, -734.15)" d="M 832.32388 745.09075 L 791.82227 745.08925 L 791.82227 744.577 C 791.8228719253452 735.8708780665862 798.8804980584313 728.8133593803833 807.58662 728.81289 L 807.58762 728.81289 L 814.98577 723.20027 L 828.78908 728.81375 L 832.32462 728.81389 Z" stroke-linecap="round" />
</g>
<g transform="matrix(1 0 0 1 815.49 825.31)"  >
<path style="stroke: none; stroke-width: 1; stroke-dasharray: none; stroke-linecap: butt; stroke-dashoffset: 0; stroke-linejoin: miter; stroke-miterlimit: 4; fill: rgb(101,32,9); fill-rule: nonzero; opacity: 1;" vector-effect="non-scaling-stroke"  transform=" translate(-876.07, -734.15)" d="M 896.32388 745.09075 L 855.82227 745.08925 L 855.82227 744.577 C 855.8228719253452 735.8708780665862 862.8804980584313 728.8133593803833 871.58662 728.81289 L 871.58762 728.81289 L 878.98577 723.20027 L 892.78908 728.81375 L 896.32462 728.81389 Z" stroke-linecap="round" />
</g>
<g transform="matrix(1 0 0 1 796.61 658.37)"  >
<path style="stroke: none; stroke-width: 1; stroke-dasharray: none; stroke-linecap: butt; stroke-dashoffset: 0; stroke-linejoin: miter; stroke-miterlimit: 4; fill: rgb(101,32,9); fill-rule: nonzero; opacity: 1;" vector-effect="non-scaling-stroke"  transform=" translate(-856.54, -568.9)" d="M 818.94053 430.688 L 798.92384 552.57208 L 804.37134 570.7349300000001 L 797.22306 583.5984900000001 L 807.72041 696.5686800000001 L 803.45928 705.9499000000001 L 815.3647900000001 713.2923400000001 L 839.5907900000001 713.2923400000001 L 840.8766 611.0196 L 846.86085 596.0037599999999 L 846.86085 587.72817 L 859.0430600000001 525.36459 L 861.2860600000001 612.70078 L 864.8296400000002 627.74014 L 861.853 638.44826 L 865.7422799999999 645.95019 L 876.0734699999999 715.52083 L 903.2388 715.52083 L 901.1378 699.3353500000001 L 901.1378 699.3353500000001 C 906.0048670992318 696.8711937113211 908.5882248059838 691.4262779486504 907.41836 686.09788 L 905.86083 679.00377 L 909.4056499999999 658.0273900000001 L 915.86083 541.00377 L 914.0408299999999 446.58043000000004 L 882.26243 422.2799 Z" stroke-linecap="round" />
</g>
<g transform="matrix(1 0 0 1 804.83 338.94)" id="ab6171fa-7d69-4734-b81c-8dff60f9761b"  >
<circle style="stroke: none; stroke-width: 1; stroke-dasharray: none; stroke-linecap: butt; stroke-dashoffset: 0; stroke-linejoin: miter; stroke-miterlimit: 4; fill: rgb(255,182,182); fill-rule: nonzero; opacity: 1;" vector-effect="non-scaling-stroke"  cx="0" cy="0" r="25.23879" />
</g>
<g transform="matrix(1 0 0 1 744.37 543.94)"  >
<path style="stroke: none; stroke-width: 1; stroke-dasharray: none; stroke-linecap: butt; stroke-dashoffset: 0; stroke-linejoin: miter; stroke-miterlimit: 4; fill: rgb(255,182,182); fill-rule: nonzero; opacity: 1;" vector-effect="non-scaling-stroke"  transform=" translate(-804.37, -453.94)" d="M 809.68585 479.05516 C 811.9092921246012 476.75781038986895 813.0009534455664 473.59360992151943 812.6670902544714 470.41398015026425 C 812.3332270633764 467.2343503790091 810.6081346282165 464.3659108844844 807.956 462.5805 L 817.7704600000001 425.46572999999995 L 798.86174 431.82586 L 792.4406700000001 466.0956 C 789.6758841120732 470.8542958798462 790.9072910721397 476.928817921913 795.3069931952673 480.23515255571704 C 799.706695318395 483.54148718952104 805.8840081629852 483.0345481784786 809.6858100000001 479.05516 Z" stroke-linecap="round" />
</g>
<g transform="matrix(1 0 0 1 750.35 471.01)"  >
<path style="stroke: none; stroke-width: 1; stroke-dasharray: none; stroke-linecap: butt; stroke-dashoffset: 0; stroke-linejoin: miter; stroke-miterlimit: 4; fill: rgb(171,13,38); fill-rule: nonzero; opacity: 1;" vector-effect="non-scaling-stroke"  transform=" translate(-810.35, -381.01)" d="M 820.01454 300.86037 L 815.95576 300.01812 L 812.4943300000001 301.93469 C 812.4943300000001 301.93469 802.8254900000001 314.82648 802.8254900000001 326.64394 C 802.8254900000001 338.46139999999997 791.008 452.33885 791.008 452.33885 L 812.49431 462.00768999999997 L 829.68336 372.83950999999996 Z" stroke-linecap="round" />
</g>
<g transform="matrix(1 0 0 1.02 804.72 325.53)"  >
<path style="stroke: none; stroke-width: 1; stroke-dasharray: none; stroke-linecap: butt; stroke-dashoffset: 0; stroke-linejoin: miter; stroke-miterlimit: 4; fill: rgb(171,13,38); fill-rule: nonzero; opacity: 1;" vector-effect="non-scaling-stroke"  transform=" translate(-864.72, -235.06)" d="M 886.932 230.43073 C 886.932 230.43073 893.53312 217.81134 879.0104200000001 216.66412000000003 C 879.0104200000001 216.66412000000003 866.6296900000001 205.43321000000003 854.01029 214.61095000000003 C 854.01029 214.61095000000003 847.1269900000001 214.61095000000003 843.36293 222.40021000000004 C 843.36293 222.40021000000004 837.94924 220.34704000000005 836.75956 225.84186000000005 C 836.75956 225.84186000000005 832.79822 237.31406000000004 836.75956 247.63902000000004 C 840.7208999999999 257.96398000000005 842.03674 259.11120000000005 842.03674 259.11120000000005 C 842.03674 259.11120000000005 835.52741 237.46436000000006 851.37168 236.31714000000005 C 867.2159499999999 235.16992000000005 884.94614 225.26829000000006 886.26659 237.88767000000004 C 887.5870399999999 250.50705000000002 889.5740499999999 253.61636000000004 889.5740499999999 253.61636000000004 C 889.5740499999999 253.61636000000004 902.11538 235.59323 886.932 230.43073 Z" stroke-linecap="round" />
</g>
<g transform="matrix(1 0 0 1 905.41 604.34)"  >
<path style="stroke: none; stroke-width: 1; stroke-dasharray: none; stroke-linecap: butt; stroke-dashoffset: 0; stroke-linejoin: miter; stroke-miterlimit: 4; fill: rgb(255,255,255); fill-rule: nonzero; opacity: 1;" vector-effect="non-scaling-stroke"  transform=" translate(-965.41, -514.34)" d="M 979.12794 583.59849 C 977.2228827305541 583.6011448192812 975.3840554675943 582.8996282420629 973.96485 581.6287599999999 L 897.584 513.63755 C 894.3793343279559 510.77819831440866 894.0938443701431 505.8644105978978 896.9458099999999 502.65317000000005 L 945.876 447.6854 C 948.7351631216638 444.48007859114153 953.6494967422639 444.1943546535157 956.86086 447.04673 L 1033.24221 515.03892 C 1036.4513322601927 517.8957164217671 1036.7370508165093 522.8130770276301 1033.8803899999998 526.0223199999999 L 984.9497299999998 580.9900899999999 C 983.581454853537 582.5365328386947 981.6511010219006 583.4709395467571 979.5893799999998 583.5848199999999 C 979.43507 583.59458 979.28126 583.59849 979.12794 583.59849 Z" stroke-linecap="round" />
</g>
<g transform="matrix(1 0 0 1 905.41 604.34)"  >
<path style="stroke: none; stroke-width: 1; stroke-dasharray: none; stroke-linecap: butt; stroke-dashoffset: 0; stroke-linejoin: miter; stroke-miterlimit: 4; fill: rgb(101,32,9); fill-rule: nonzero; opacity: 1;" vector-effect="non-scaling-stroke"  transform=" translate(-965.41, -514.34)" d="M 979.127 584.09849 C 977.0996813597095 584.1014558272605 975.1427871455767 583.355074317074 973.6323799999999 582.0027799999999 L 897.2515199999999 514.0115699999999 C 893.8409358859855 510.96799329111656 893.5371168348333 505.7382081694457 896.5723199999999 502.3201699999999 L 945.5024899999999 447.3523899999999 C 948.5460967363703 443.9424160428006 953.775149897939 443.6384123499471 957.1934099999999 446.6727099999999 L 1033.57476 514.6648899999999 C 1036.9898999355992 517.7058664580507 1037.2939566195053 522.9393078291287 1034.25396 526.3553199999999 L 985.32325 581.3231 C 983.8667361387251 582.9684200743843 981.8126592747875 583.9628447668993 979.61866 584.0848199999999 C 979.45411 584.0936 979.29054 584.09849 979.127 584.09849 Z M 951.6909999999999 446.58042 C 949.8974403373273 446.5767164667381 948.188332639161 447.3420274235351 946.9966599999999 448.68247 L 898.0664899999999 503.65024000000005 C 895.7640030297455 506.24244098974214 895.9944528166859 510.209288283165 898.5816199999999 512.5174300000001 L 974.9624799999999 580.5086400000001 C 976.2065031096864 581.6163889448728 977.8397155287433 582.1844233817235 979.5026495715695 582.0877197545384 C 981.1655836143955 581.9910161273533 982.7219446964547 581.2375002950968 983.82918 579.9930200000001 L 1032.75985 525.0252400000002 C 1035.0658554242882 522.4346243020885 1034.8352230976861 518.465150682408 1032.24471 516.1590300000001 L 955.86336 448.1668500000001 C 954.7150015182466 447.14286962838116 953.2295194357389 446.57806366635117 951.69093 446.58042 Z" stroke-linecap="round" />
</g>
<g transform="matrix(1 0 0 1 916.85 591.49)"  >
<path style="stroke: none; stroke-width: 1; stroke-dasharray: none; stroke-linecap: butt; stroke-dashoffset: 0; stroke-linejoin: miter; stroke-miterlimit: 4; fill: rgb(171,13,38); fill-rule: nonzero; opacity: 1;" vector-effect="non-scaling-stroke"  transform=" translate(-976.85, -501.49)" d="M 1006.82521 531.54087 C 1006.0003523388184 531.5421698327103 1005.2039673141112 531.2393304722945 1004.58839 530.69028 L 944.63239 477.31919000000005 C 943.7294348390014 476.52064557223457 943.3223078187765 475.3002866833646 943.5649519837217 474.1195559625365 C 943.8075961486669 472.93882524170834 944.6629809940741 471.9779168202192 945.8076680334486 471.60016980464235 C 946.9523550728231 471.22242278906543 948.2116508870571 471.4854860523583 949.10939 472.28989000000007 L 1009.06593 525.6609900000001 C 1010.1100828256018 526.5900552408468 1010.471363645905 528.0677720968778 1009.9736592965643 529.3737995566232 C 1009.4759549472236 530.6798270163688 1008.2228563099418 531.5423319398092 1006.82521 531.54087 Z" stroke-linecap="round" />
</g>
<g transform="matrix(1 0 0 1 905.41 604.34)"  >
<path style="stroke: none; stroke-width: 1; stroke-dasharray: none; stroke-linecap: butt; stroke-dashoffset: 0; stroke-linejoin: miter; stroke-miterlimit: 4; fill: rgb(171,13,38); fill-rule: nonzero; opacity: 1;" vector-effect="non-scaling-stroke"  transform=" translate(-965.41, -514.34)" d="M 995.38917 544.38755 C 994.5643130267653 544.3888460714489 993.767929299169 544.086007204282 993.1523500000001 543.53696 L 933.19635 490.16587000000004 C 931.8078177733655 488.9295667803851 931.6844117803851 486.80171722663465 932.920715 485.41318500000006 C 934.157018219615 484.02465277336546 936.2848677733655 483.90124678038507 937.6734 485.13755000000003 L 997.62994 538.50864 C 998.6741585934068 539.4375221714128 999.0354841836149 540.915184384616 998.5377339683829 542.2211167268226 C 998.039983753151 543.5270490690293 996.7867933734759 544.3893458107358 995.38922 544.38755 Z" stroke-linecap="round" />
</g>
<g transform="matrix(1 0 0 1 893.98 617.18)"  >
<path style="stroke: none; stroke-width: 1; stroke-dasharray: none; stroke-linecap: butt; stroke-dashoffset: 0; stroke-linejoin: miter; stroke-miterlimit: 4; fill: rgb(171,13,38); fill-rule: nonzero; opacity: 1;" vector-effect="non-scaling-stroke"  transform=" translate(-953.98, -527.18)" d="M 983.95314 557.23618 C 983.1279424052158 557.237570925834 982.3312645314844 556.9343411498287 981.71583 556.38462 L 921.75929 503.0145 C 920.8593576984017 502.21506607721227 920.4546901896977 500.99599781625244 920.6979169514291 499.8170943058915 C 920.9411437131605 498.6381907955305 921.7952563639068 497.6788291341558 922.9381070542835 497.30085420923467 C 924.0809577446603 496.9228792843135 925.3386550247496 497.18380220231023 926.2368299999999 497.98521 L 986.19283 551.3563 C 987.2370980310718 552.2851466299539 987.598599120695 553.762748579884 987.1011059436639 555.068793112625 C 986.6036127666328 556.3748376453661 985.3506772444225 557.2374749604759 983.95309 557.23618 Z" stroke-linecap="round" />
</g>
<g transform="matrix(1 0 0 1 866.01 547.13)"  >
<path style="stroke: none; stroke-width: 1; stroke-dasharray: none; stroke-linecap: butt; stroke-dashoffset: 0; stroke-linejoin: miter; stroke-miterlimit: 4; fill: rgb(255,182,182); fill-rule: nonzero; opacity: 1;" vector-effect="non-scaling-stroke"  transform=" translate(-926.01, -457.13)" d="M 915.38816 481.24574 C 913.8306372678514 478.4536809137374 913.589814248281 475.1151415609454 914.7304911498093 472.1284498780526 C 915.8711680513375 469.1417581951598 918.2761723577102 466.8137128727434 921.29837 465.77074 L 921.3632699999999 427.3803 L 937.99911 438.39119999999997 L 935.387 473.15931 C 936.8343437380829 478.46912806153927 934.0815204102621 484.02230221146584 928.9792893087009 486.0853605065894 C 923.8770582071396 488.148418801713 918.0381459653736 486.06926434699795 915.3881299999999 481.24574 Z" stroke-linecap="round" />
</g>
<g transform="matrix(1 0 0 1 865.41 471.93)"  >
<path style="stroke: none; stroke-width: 1; stroke-dasharray: none; stroke-linecap: butt; stroke-dashoffset: 0; stroke-linejoin: miter; stroke-miterlimit: 4; fill: rgb(171,13,38); fill-rule: nonzero; opacity: 1;" vector-effect="non-scaling-stroke"  transform=" translate(-925.4, -381.93)" d="M 916.92587 311.38058 L 924.358 304.217 L 929.81764 308.15758999999997 C 929.81764 308.15758999999997 935.18922 314.60348 939.48648 333.94115999999997 C 943.7837400000001 353.27883999999995 939.48648 459.63606 939.48648 459.63606 L 915.85154 456.41310999999996 L 919.07448 400.54870999999997 L 909.40565 353.27882999999997 Z" stroke-linecap="round" />
</g>
<g transform="matrix(1 0 0 1 813 454.19)"  >
<path style="stroke: none; stroke-width: 1; stroke-dasharray: none; stroke-linecap: butt; stroke-dashoffset: 0; stroke-linejoin: miter; stroke-miterlimit: 4; fill: rgb(171,13,38); fill-rule: nonzero; opacity: 1;" vector-effect="non-scaling-stroke"  transform=" translate(-872.99, -364.19)" d="M 927.90022 305.96439 L 902.86085 294.00376 L 885.86085 278.23576 L 854.86085 278.00376 L 844.86085 291.00376 L 818.46073 299.97158 L 822.86085 391.00376 L 819.86085 398.00376 C 819.86085 398.00376 821.9509 399.89188 822.90585 400.94782 C 823.8607999999999 402.00375999999994 821.58631 410.84432999999996 821.58631 410.84432999999996 L 820.3039200000001 420.46232999999995 L 823.8608200000001 423.00377999999995 L 819.2368200000001 428.46577999999994 L 818.08882 437.07553999999993 C 818.08882 437.07553999999993 898.80389 417.01375999999993 914.0550300000001 450.24790999999993 C 914.8608100000001 452.00380999999993 912.8765600000002 434.84297999999995 912.8765600000002 434.84297999999995 L 910.8923100000002 422.27997999999997 L 912.8608100000001 411.00383999999997 L 915.8608100000001 408.00383999999997 L 910.8293100000001 402.97234 L 914.0550300000001 379.09833999999995 Z" stroke-linecap="round" />
</g>
<g transform="matrix(1 0 0 1 285.37 573.27)"  >
<path style="stroke: none; stroke-width: 1; stroke-dasharray: none; stroke-linecap: butt; stroke-dashoffset: 0; stroke-linejoin: miter; stroke-miterlimit: 4; fill: rgb(255,184,184); fill-rule: nonzero; opacity: 1;" vector-effect="non-scaling-stroke"  transform=" translate(-345.37, -483.27)" d="M 360.06046 507.77535 C 361.3184025544936 504.58133018720207 361.09698159253463 500.99416902781644 359.45577718965313 497.9791018406854 C 357.8145727867716 494.96403465355445 354.92217432855426 492.8307780856044 351.55687 492.15335 L 345.99464 451.30966 L 329.86722 465.40722 L 337.62170999999995 502.03178 C 336.8412801831468 507.8892957139474 340.56526954737757 513.4047946606532 346.2899849950058 514.8701253679887 C 352.014700442634 516.3354560753244 357.93065286552655 513.2874514253789 360.0604599999999 507.77533000000005 Z" stroke-linecap="round" />
</g>
<g transform="matrix(1 0 0 1 264.05 498.28)"  >
<path style="stroke: none; stroke-width: 1; stroke-dasharray: none; stroke-linecap: butt; stroke-dashoffset: 0; stroke-linejoin: miter; stroke-miterlimit: 4; fill: rgb(171,13,38); fill-rule: nonzero; opacity: 1;" vector-effect="non-scaling-stroke"  transform=" translate(-321.97, -408.28)" d="M 296.87532 326.83781 L 292.50395 327.67515 L 289.86165 331.00174999999996 C 289.86165 331.00174999999996 285.58705 347.76814999999993 290.4565 359.48526999999996 C 295.32595000000003 371.20239 330.53264 488.98220999999995 330.53264 488.98220999999995 L 355.82059000000004 489.71538999999996 L 336.12144 394.2216 Z" stroke-linecap="round" />
</g>
<g transform="matrix(1 0 0 1 342.67 564.82)"  >
<path style="stroke: none; stroke-width: 1; stroke-dasharray: none; stroke-linecap: butt; stroke-dashoffset: 0; stroke-linejoin: miter; stroke-miterlimit: 4; fill: rgb(255,184,184); fill-rule: nonzero; opacity: 1;" vector-effect="non-scaling-stroke"  transform=" translate(-402.66, -474.82)" d="M 396.56736 501.78391 C 394.20921702847863 499.2892490389974 393.07717555992934 495.8782040647064 393.47584713041465 492.46862453588284 C 393.87451870089996 489.0590450070593 395.7629504022377 486.0011746022622 398.633 484.11782999999997 L 388.56532 444.14549 L 408.78614 451.21326 L 415.24651 488.08811 C 418.154656646684 493.23224511822735 416.75569049218285 499.73851441324916 411.9901546956013 503.2326683315389 C 407.2246188990198 506.7268222498286 400.59881619320925 506.104419691626 396.56736 501.78391 Z" stroke-linecap="round" />
</g>
<g transform="matrix(1 0 0 1 336.7 483.78)"  >
<path style="stroke: none; stroke-width: 1; stroke-dasharray: none; stroke-linecap: butt; stroke-dashoffset: 0; stroke-linejoin: miter; stroke-miterlimit: 4; fill: rgb(171,13,38); fill-rule: nonzero; opacity: 1;" vector-effect="non-scaling-stroke"  transform=" translate(-396.7, -396.46)" d="M 387.73256 310.335 L 392.10091 309.48206999999996 L 395.79301 311.58358999999996 C 395.79301 311.58358999999996 406.01081999999997 325.54713999999996 405.86129999999997 338.23492999999996 C 405.71178 350.92271999999997 416.95876999999996 473.33637999999996 416.95876999999996 473.33637999999996 L 393.76777 483.44544999999994 L 376.44097999999997 387.49283999999994 Z" stroke-linecap="round" />
</g>
<g transform="matrix(0 0 0 0 0 0)"  >
<g style=""   >
</g>
</g>
<g transform="matrix(0 0 0 0 0 0)"  >
<g style=""   >
</g>
</g>
<g transform="matrix(0 0 0 0 0 0)"  >
<g style=""   >
</g>
</g>
<g transform="matrix(0 0 0 0 0 0)"  >
<g style=""   >
</g>
</g>
<g transform="matrix(0 0 0 0 0 0)"  >
<g style=""   >
</g>
</g>
<g transform="matrix(0 0 0 0 0 0)"  >
<g style=""   >
</g>
</g>
<g transform="matrix(0 0 0 0 0 0)"  >
<g style=""   >
</g>
</g>
<g transform="matrix(0 0 0 0 0 0)"  >
<g style=""   >
</g>
</g>
<g transform="matrix(0 0 0 0 0 0)"  >
<g style=""   >
</g>
</g>
<g transform="matrix(0 0 0 0 0 0)"  >
<g style=""   >
</g>
</g>
<g transform="matrix(0 0 0 0 0 0)"  >
<g style=""   >
</g>
</g>
<g transform="matrix(0 0 0 0 0 0)"  >
<g style=""   >
</g>
</g>
<g transform="matrix(0 0 0 0 0 0)"  >
<g style=""   >
</g>
</g>
<g transform="matrix(0 0 0 0 0 0)"  >
<g style=""   >
</g>
</g>
<g transform="matrix(0 0 0 0 0 0)"  >
<g style=""   >
</g>
</g>
<g transform="matrix(0 0 0 0 0 0)"  >
<g style=""   >
</g>
</g>
<g transform="matrix(0 0 0 0 0 0)"  >
<g style=""   >
</g>
</g>
<g transform="matrix(0 0 0 0 0 0)"  >
<g style=""   >
</g>
</g>
<g transform="matrix(0 0 0 0 0 0)"  >
<g style=""   >
</g>
</g>
<g transform="matrix(0 0 0 0 0 0)"  >
<g style=""   >
</g>
</g>
<g transform="matrix(0 0 0 0 0 0)"  >
<g style=""   >
</g>
</g>
<g transform="matrix(0 0 0 0 0 0)"  >
<g style=""   >
</g>
</g>
<g transform="matrix(0 0 0 0 0 0)"  >
<g style=""   >
</g>
</g>
<g transform="matrix(0 0 0 0 0 0)"  >
<g style=""   >
</g>
</g>
<g transform="matrix(0 0 0 0 0 0)"  >
<g style=""   >
</g>
</g>
<g transform="matrix(0 0 0 0 0 0)"  >
<g style=""   >
</g>
</g>
<g transform="matrix(0 0 0 0 0 0)"  >
<g style=""   >
</g>
</g>
<g transform="matrix(0 0 0 0 0 0)"  >
<g style=""   >
</g>
</g>
<g transform="matrix(0 0 0 0 0 0)"  >
<g style=""   >
</g>
</g>
<g transform="matrix(0 0 0 0 0 0)"  >
<g style=""   >
</g>
</g>
<g transform="matrix(0 0 0 0 0 0)"  >
<g style=""   >
</g>
</g>
<g transform="matrix(0 0 0 0 0 0)"  >
<g style=""   >
</g>
</g>
<g transform="matrix(0 0 0 0 0 0)"  >
<g style=""   >
</g>
</g>
<g transform="matrix(0 0 0 0 0 0)"  >
<g style=""   >
</g>
</g>
<g transform="matrix(0 0 0 0 0 0)"  >
<g style=""   >
</g>
</g>
<g transform="matrix(0 0 0 0 0 0)"  >
<g style=""   >
</g>
</g>
<g transform="matrix(0 0 0 0 0 0)"  >
<g style=""   >
</g>
</g>
</svg>